<?xml version="1.0" encoding="UTF-8" standalone="no"?>
<!-- Created with Inkscape (http://www.inkscape.org/) -->

<svg
   xmlns:dc="http://purl.org/dc/elements/1.1/"
   xmlns:cc="http://creativecommons.org/ns#"
   xmlns:rdf="http://www.w3.org/1999/02/22-rdf-syntax-ns#"
   xmlns:svg="http://www.w3.org/2000/svg"
   xmlns="http://www.w3.org/2000/svg"
   xmlns:sodipodi="http://sodipodi.sourceforge.net/DTD/sodipodi-0.dtd"
   xmlns:inkscape="http://www.inkscape.org/namespaces/inkscape"
   width="512"
   height="512"
   id="svg3297"
   sodipodi:version="0.32"
   inkscape:version="0.47pre4 r22446"
   sodipodi:docname="log.svg"
   inkscape:output_extension="org.inkscape.output.svg.inkscape"
   version="1.1">
  <defs
     id="defs3299">
    <inkscape:perspective
       sodipodi:type="inkscape:persp3d"
       inkscape:vp_x="0 : 8 : 1"
       inkscape:vp_y="0 : 1000 : 0"
       inkscape:vp_z="16 : 8 : 1"
       inkscape:persp3d-origin="8 : 5.3333333 : 1"
       id="perspective3305" />
  </defs>
  <sodipodi:namedview
     id="base"
     pagecolor="#7b6464"
     bordercolor="#666666"
     borderopacity="1.0"
     inkscape:pageopacity="1"
     inkscape:pageshadow="2"
     inkscape:zoom="1.0078125"
     inkscape:cx="256"
     inkscape:cy="250.84038"
     inkscape:current-layer="layer1"
     showgrid="true"
     inkscape:grid-bbox="true"
     inkscape:document-units="px"
     inkscape:snap-bbox="true"
     inkscape:object-paths="true"
     inkscape:object-nodes="true"
     objecttolerance="11"
     gridtolerance="11"
     guidetolerance="11"
     inkscape:snap-global="false"
     showguides="true"
     inkscape:guide-bbox="true"
     inkscape:window-width="1440"
     inkscape:window-height="849"
     inkscape:window-x="-4"
     inkscape:window-y="-3"
     inkscape:window-maximized="1">
    <inkscape:grid
       type="xygrid"
       id="grid3307"
       visible="true"
       enabled="true"
       empspacing="5"
       snapvisiblegridlinesonly="true" />
  </sodipodi:namedview>
  <metadata
     id="metadata3302">
    <rdf:RDF>
      <cc:Work
         rdf:about="">
        <dc:format>image/svg+xml</dc:format>
        <dc:type
           rdf:resource="http://purl.org/dc/dcmitype/StillImage" />
        <dc:title></dc:title>
      </cc:Work>
    </rdf:RDF>
  </metadata>
  <g
     id="layer1"
     inkscape:label="Layer 1"
     inkscape:groupmode="layer"
     transform="translate(0,496)">
    <g
       id="g2892">
      <rect
         y="-454.32559"
         x="189.51938"
         height="375.06976"
         width="266.91473"
         id="rect2839"
         style="color:#000000;fill:#ffffff;fill-opacity:1;fill-rule:nonzero;stroke:#000000;stroke-width:10.60000038;stroke-linecap:round;stroke-linejoin:miter;stroke-miterlimit:4;stroke-opacity:1;stroke-dasharray:none;stroke-dashoffset:0;marker:none;visibility:visible;display:inline;overflow:visible;enable-background:accumulate" />
      <path
         transform="translate(0,-496)"
         d="m 363.30501,87.72271 c 4.23369,2.216681 8.6812,3.908496 13.29548,5.125513 3.00253,0.630307 6.10876,1.308452 9.18531,0.939439 -1.0101,1.283398 5.49336,-2.690134 3.95791,-1.815958 -20.07984,11.432026 -12.42642,7.295574 -8.09887,4.369392 2.89664,-2.01525 5.78218,-4.038421 8.78886,-5.886776 6.04058,-3.518595 11.47342,-8.766984 18.39949,-10.218234 1.90372,-0.283819 3.83543,-0.254921 5.75498,-0.252158 2.72111,0.295154 4.42769,2.294195 6.26829,4.11905 2.11185,2.477544 3.81184,5.254496 5.63717,7.938304 0,0 -12.62104,7.404277 -12.62104,7.404277 l 0,0 c -1.7465,-2.61338 -3.34007,-5.343721 -5.43996,-7.701824 -1.68151,-1.589327 -3.26695,-3.202944 -5.74025,-3.104754 -1.85099,0.02777 -3.7337,0.03722 -5.51983,0.58559 -4.53729,1.742329 -11.80095,6.561158 10.0724,-6.080302 0.3166,-0.182976 -0.62682,0.377482 -0.92941,0.582795 -1.98412,1.346246 0.006,0.161077 -2.26929,1.444742 -2.97582,1.902738 -6.0014,3.719988 -8.84223,5.835819 -5.39818,3.832358 -10.8444,6.678951 -16.83661,10.106955 -0.90259,0.51635 -1.94267,0.94171 -2.96165,1.16703 -0.46963,0.10385 -0.95361,0.12638 -1.43042,0.18957 -3.15716,-0.004 -6.2694,-0.6045 -9.30741,-1.44251 -4.68052,-1.391661 -9.18665,-3.229202 -13.63979,-5.228217 0,0 12.27687,-8.077743 12.27687,-8.077743 z"
         id="path2884"
         style="color:#000000;fill:#000000;fill-opacity:1;fill-rule:nonzero;stroke:none;stroke-width:10.60000038;marker:none;visibility:visible;display:inline;overflow:visible;enable-background:accumulate" />
      <path
         transform="translate(0,-496)"
         d="m 372.15967,168.33247 c 4.98557,0.25621 9.9581,-0.0905 14.9316,-0.39466 4.73491,-0.374 9.38656,-1.28592 14.01002,-2.33278 3.30855,-0.88608 6.57329,-1.90938 9.86414,-2.85252 2.59899,-0.67274 5.03155,-1.74982 7.70797,-2.1082 2.07653,-0.006 4.03326,-0.66341 6.06791,-0.97476 1.82269,-0.70239 3.75012,-0.97703 5.68361,-1.14455 0,0 -11.80262,8.78028 -11.80262,8.78028 l 0,0 c -1.91482,0.26999 -3.7603,0.78689 -5.64003,1.22252 -2.00213,0.39474 -3.99843,0.74221 -6.02981,0.95359 -2.55192,0.57789 -4.98591,1.54858 -7.52653,2.17547 -3.26985,1.00678 -6.56535,1.91422 -9.88696,2.73622 -4.63294,0.98287 -9.30495,1.77817 -14.039,2.07276 -5.07422,0.29772 -10.14422,0.51935 -15.22864,0.50402 0,0 11.88834,-8.63739 11.88834,-8.63739 z"
         id="path2886"
         style="color:#000000;fill:#000000;fill-opacity:1;fill-rule:nonzero;stroke:none;stroke-width:10.60000038;marker:none;visibility:visible;display:inline;overflow:visible;enable-background:accumulate" />
      <path
         transform="translate(0,-496)"
         d="m 376.01846,266.55886 c 4.42158,0.42403 8.8006,1.14868 13.18152,1.86888 3.93067,0.61246 7.89646,0.94394 11.86971,1.08994 2.2075,0.0621 4.41612,0.0439 6.62416,0.0348 1.96812,-0.009 3.93626,-0.0119 5.90439,-0.0136 1.91242,0.0897 3.6745,-0.60169 5.29145,-1.56023 -22.17033,12.19254 -12.32396,7.76444 -8.02632,4.10133 0.78869,-0.63856 1.53563,-1.33109 2.23587,-2.06512 0,0 13.585,-5.72163 13.585,-5.72163 l 0,0 c -0.68105,0.82342 -1.3831,1.55801 -2.14276,2.30131 -2.62909,1.95175 1.41574,-1.10101 -1.2997,1.1287 -4.69341,3.85386 -12.10411,5.14711 -15.85277,9.4447 -1.82789,0.73931 -3.70093,1.14664 -5.68982,1.01841 -1.96746,0.003 -3.93491,0.009 -5.90237,0.013 -2.20302,-0.001 -4.4073,-0.011 -6.60721,-0.1425 -3.95593,-0.25904 -7.8952,-0.71395 -11.8115,-1.33184 -4.38986,-0.72658 -8.80524,-1.45313 -13.26497,-1.5164 0,0 11.90532,-8.64972 11.90532,-8.64972 z"
         id="path2888"
         style="color:#000000;fill:#000000;fill-opacity:1;fill-rule:nonzero;stroke:none;stroke-width:10.60000038;marker:none;visibility:visible;display:inline;overflow:visible;enable-background:accumulate" />
      <path
         transform="translate(0,-496)"
         d="m 380.9797,344.94646 c 4.43203,-0.29174 8.86531,-0.56353 13.30163,-0.78196 3.09836,-0.15326 6.16387,-0.304 9.23478,0.15996 2.15224,0.32177 4.21833,1.06414 6.27396,1.75717 1.93362,0.66406 3.83106,1.31332 5.8611,1.62049 1.62132,0.20093 3.2569,0.21851 4.88812,0.23632 0,0 -11.9167,8.62118 -11.9167,8.62118 l 0,0 c -1.68051,-0.0495 -3.3668,-0.11625 -5.02309,-0.43011 -2.0445,-0.43527 -3.99209,-1.15396 -5.97661,-1.79985 -1.98348,-0.67169 -4.00655,-1.28324 -6.09101,-1.53919 -2.97618,-0.34367 -5.97237,-0.11342 -8.95944,-0.0372 -4.50544,0.1887 -9.00246,0.49446 -13.49806,0.84289 0,0 11.90532,-8.64972 11.90532,-8.64972 z"
         id="path2890"
         style="color:#000000;fill:#000000;fill-opacity:1;fill-rule:nonzero;stroke:none;stroke-width:10.60000038;marker:none;visibility:visible;display:inline;overflow:visible;enable-background:accumulate" />
    </g>
    <g
       id="g2877">
      <rect
         style="color:#000000;fill:#ffffff;fill-opacity:1;fill-rule:nonzero;stroke:#000000;stroke-width:10.60000038;stroke-linecap:round;stroke-linejoin:miter;stroke-miterlimit:4;stroke-opacity:1;stroke-dasharray:none;stroke-dashoffset:0;marker:none;visibility:visible;display:inline;overflow:visible;enable-background:accumulate"
         id="rect2841"
         width="266.91473"
         height="375.06976"
         x="126.0155"
         y="-428.52713" />
      <path
         transform="translate(0,-496)"
         d="m 276.68388,145.12427 c 3.2418,-0.609 6.42742,-1.48217 9.54666,-2.54669 2.81638,-0.93738 5.82289,-0.89704 8.75651,-0.96212 4.32286,-0.13062 8.65371,0.16262 12.93491,0.75726 3.80523,0.35926 7.40362,1.68021 11.01272,2.84731 2.7767,1.22218 5.30515,2.91758 8.06143,4.1721 2.97125,1.10586 6.25954,1.15215 9.38995,0.96805 2.98686,-0.12452 5.79472,-1.12428 8.5351,-2.23453 2.45523,-1.33069 5.00197,-2.47234 7.58985,-3.51656 1.42029,-0.55476 2.91795,-0.78808 4.42224,-0.96313 0,0 -11.76042,8.81844 -11.76042,8.81844 l 0,0 c -1.42901,0.27095 -2.83753,0.62124 -4.16921,1.22424 -2.55871,1.11375 -5.06664,2.32661 -7.6091,3.472 -2.82549,1.01612 -5.71974,1.78747 -8.75057,1.78635 -3.33261,0.0135 -6.80499,-0.0234 -9.87149,-1.4861 -2.63977,-1.3395 -5.14637,-2.94861 -7.90632,-4.04565 -3.51875,-1.17791 -7.06752,-2.33182 -10.78692,-2.66529 -4.26055,-0.4919 -8.54842,-0.78464 -12.83801,-0.53891 -2.90648,0.13501 -5.82614,0.31217 -8.57974,1.34467 -3.17674,0.99596 -6.43616,1.69351 -9.66336,2.50417 0,0 11.68577,-8.93561 11.68577,-8.93561 z"
         id="path2867"
         style="color:#000000;fill:#000000;fill-opacity:1;fill-rule:nonzero;stroke:none;stroke-width:10.60000038;marker:none;visibility:visible;display:inline;overflow:visible;enable-background:accumulate" />
      <path
         transform="translate(0,-496)"
         d="m 306.76241,226.25255 c 5.39938,1.08364 10.89728,1.52688 16.32273,2.43639 7.02142,1.12121 14.07578,2.15386 20.97659,3.89081 3.5088,0.85079 6.99761,2.02307 9.93476,4.16437 2.62345,1.88639 4.91611,4.17793 7.24779,6.40267 1.49885,1.46333 2.80746,3.06354 3.91899,4.83381 0,0 -12.66919,7.36333 -12.66919,7.36333 l 0,0 c -1.0145,-1.68023 -2.24573,-3.17898 -3.64382,-4.56108 -2.29462,-2.18457 -4.61731,-4.35641 -7.22965,-6.16332 -2.82482,-1.93359 -6.09818,-3.02667 -9.39113,-3.88427 -6.84805,-1.75013 -13.8427,-2.83045 -20.83461,-3.82851 -5.55944,-0.81744 -11.15944,-1.34954 -16.70303,-2.28144 0,0 12.07057,-8.37276 12.07057,-8.37276 z"
         id="path2869"
         style="color:#000000;fill:#000000;fill-opacity:1;fill-rule:nonzero;stroke:none;stroke-width:10.60000038;marker:none;visibility:visible;display:inline;overflow:visible;enable-background:accumulate" />
      <path
         transform="translate(0,-496)"
         d="m 316.48358,305.25653 c 3.98846,0.0824 7.97838,0.0649 11.9675,0.0635 3.60039,-0.0102 7.20074,-0.0169 10.8011,-0.0364 3.31474,0.008 6.62946,0.0179 9.94422,0.0102 2.51655,-0.11613 4.83827,-0.74354 6.93218,-2.13965 -3.91088,2.23718 -7.82175,4.47436 -11.73263,6.71155 0,0 13.64668,-5.46895 13.64668,-5.46895 l 0,0 c -4.44855,2.66312 -8.89709,5.32624 -13.34564,7.98936 -2.30626,1.07085 -4.75787,1.50044 -7.3035,1.483 -3.32409,-0.008 -6.64814,0.002 -9.9722,0.0102 -3.56694,-0.0196 -7.13388,-0.0262 -10.70085,-0.0364 -4.04736,-0.001 -8.09545,-0.0177 -12.14219,0.0635 0,0 11.90533,-8.64973 11.90533,-8.64973 z"
         id="path2873"
         style="color:#000000;fill:#000000;fill-opacity:1;fill-rule:nonzero;stroke:none;stroke-width:10.60000038;marker:none;visibility:visible;display:inline;overflow:visible;enable-background:accumulate" />
      <path
         transform="translate(0,-496)"
         d="m 307.55334,374.7139 c 7.42718,0.17947 14.85668,0.22213 22.28574,0.21824 6.93301,-3.7e-4 13.86554,-0.0803 20.79795,-0.16192 2.51512,-0.0324 5.03038,-0.0483 7.54568,-0.0539 1.50001,-0.1396 2.90571,-0.60711 4.33932,-1.03218 0,0 -11.63562,8.94873 -11.63562,8.94873 l 0,0 c -1.50752,0.39712 -3.03309,0.73031 -4.60225,0.72825 -2.46588,-0.006 -4.93172,-0.021 -7.39741,-0.0539 -6.78382,-0.0825 -13.56778,-0.16241 -20.35223,-0.16192 -7.62932,-0.004 -15.25893,0.044 -22.8865,0.21824 0,0 11.90532,-8.64972 11.90532,-8.64972 z"
         id="path2875"
         style="color:#000000;fill:#000000;fill-opacity:1;fill-rule:nonzero;stroke:none;stroke-width:10.60000038;marker:none;visibility:visible;display:inline;overflow:visible;enable-background:accumulate" />
    </g>
    <g
       id="g2899">
      <rect
         y="-401.73642"
         x="53.581387"
         height="375.06976"
         width="266.91473"
         id="rect2843"
         style="color:#000000;fill:#ffffff;fill-opacity:1;fill-rule:nonzero;stroke:#000000;stroke-width:10.60000038;stroke-linecap:round;stroke-linejoin:miter;stroke-miterlimit:4;stroke-opacity:1;stroke-dasharray:none;stroke-dashoffset:0;marker:none;visibility:visible;display:inline;overflow:visible;enable-background:accumulate" />
      <path
         transform="translate(0,-496)"
         d="m 91.883874,186.4016 c -3.711371,2.12766 -7.410591,4.27666 -11.134113,6.38299 -0.640961,0.36258 1.254803,-0.77117 1.885544,-1.15125 0.749198,-0.45146 1.496589,-0.90616 2.254212,-1.34333 6.759115,-3.90022 13.41172,-7.86665 20.315853,-11.4658 5.47176,-2.86805 11.38207,-4.63128 17.44051,-5.70113 5.69149,-0.94987 10.05563,-0.22368 15.30267,2.00648 5.32057,2.60189 9.82625,6.47529 14.51153,10.02927 2.40242,1.61339 4.75911,3.3864 7.45433,4.50365 3.76032,1.55877 7.75803,2.04782 11.75004,2.61473 9.3054,0.94732 18.64996,0.0827 27.71691,-2.15488 1.81941,-0.44899 3.60196,-1.03594 5.40294,-1.55391 8.01829,-2.63107 15.44812,-6.60764 22.82301,-10.63625 1.17087,-0.4981 2.46963,-1.21572 3.8081,-1.19789 2.49069,0.0332 4.8909,1.87585 6.78433,3.2666 2.95621,2.46112 4.94013,4.4232 8.72734,5.43446 0.64466,0.11198 1.27967,0.33588 1.93399,0.33594 1.29861,1.3e-4 4.95889,-0.8299 5.93369,-1.07933 4.0855,-1.04539 8.08185,-2.47634 12.10975,-3.71871 4.26222,-1.35379 8.63143,-2.27394 13.03173,-3.03178 0,0 -11.51081,8.66938 -11.51081,8.66938 l 0,0 c -4.29078,0.75165 -8.54385,1.69008 -12.70127,3.00913 -5.25207,1.62734 -13.34447,4.85919 -18.77751,4.46024 -0.69421,-0.051 -1.36048,-0.29526 -2.04072,-0.4429 -0.62621,-0.21216 -1.27082,-0.37627 -1.87863,-0.63648 -2.72218,-1.16537 -4.71095,-3.51257 -7.09271,-5.18746 -3.71098,-2.4737 -5.43854,-3.04836 -9.55133,-0.84335 -7.28125,3.90095 -14.69202,7.61047 -22.61034,10.0633 -1.8119,0.48464 -3.60805,1.03254 -5.4357,1.4539 -9.23235,2.12851 -18.72093,2.88962 -28.15596,1.88651 -3.58188,-0.51495 -5.40213,-0.64134 -8.81598,-1.62182 -4.10106,-1.17785 -7.65275,-3.39693 -11.04484,-5.92843 -4.57955,-3.51057 -9.04846,-7.27453 -14.35062,-9.67096 -5.1296,-1.93452 -9.37812,-2.39044 -14.81127,-1.35399 -5.96553,1.18278 -11.753303,3.08009 -17.115134,5.99537 -0.939611,0.50316 -1.883807,0.99786 -2.818834,1.50949 -10.799142,5.90913 14.454058,-8.57047 4.939805,-2.8912 -0.604489,0.36083 -1.210496,0.71912 -1.817336,1.07599 -4.633141,2.72462 -9.268399,5.44563 -13.902599,8.16845 0,0 11.439422,-9.25503 11.439422,-9.25503 z"
         id="path2851"
         style="color:#000000;fill:#000000;fill-opacity:1;fill-rule:nonzero;stroke:none;stroke-width:10.60000038;marker:none;visibility:visible;display:inline;overflow:visible;enable-background:accumulate" />
      <path
         transform="translate(0,-496)"
         d="m 102.13121,134.66635 c 2.5675,2.56295 5.61213,4.48842 8.85015,6.07842 2.8112,0.99995 5.60326,2.39914 8.63929,2.40378 -0.56617,1.03761 4.26249,-2.07199 3.00083,-1.36398 -19.63441,11.01819 -13.67223,8.97007 -10.02898,5.10983 1.30199,-1.38018 2.18967,-2.88369 2.62455,-4.72372 0.31516,-1.7326 0.23116,-3.49762 0.42916,-5.24221 15.51197,-8.32012 10.10047,-9.23271 18.63573,-3.20388 2.86553,2.04224 6.27036,2.44723 9.6757,2.73906 4.32206,0.29459 7.18944,0.50235 10.98933,-1.82174 -3.7342,2.11525 -7.4684,4.2305 -11.20259,6.34575 0.75822,-0.0767 1.13301,-1.29237 1.77247,-1.57024 4.45821,-1.93724 8.8612,-4.02159 13.42664,-5.6905 0.24993,-0.0914 -0.0272,0.53152 -0.0408,0.79727 -0.4872,2.74678 0.67786,3.92358 2.76784,5.50737 4.22332,2.1978 9.13525,2.26659 13.78802,2.49867 8.64061,0.15357 16.94459,-2.27173 24.98564,-5.17906 4.15882,-1.74472 8.46363,-1.38071 12.83805,-1.15448 4.96411,0.16052 9.94746,0.58696 14.91002,0.24591 0.53226,-0.1174 1.08409,-0.16719 1.59678,-0.35221 0.36811,-0.13285 1.356,-0.78204 1.01485,-0.5903 -4.02413,2.26169 -8.00498,4.60151 -12.06387,6.80021 -0.11002,0.0596 0.17592,-0.22326 0.14759,-0.34514 -0.10204,-0.43915 -0.6651,-0.60995 -1.018,-0.89054 -3.19502,-1.65299 -6.9421,-1.61798 -10.45039,-1.79249 -4.8351,0.10234 -11.50793,-0.86993 -16.11477,0.86028 -0.54628,0.20517 -1.00618,0.59131 -1.50927,0.88696 3.84988,-2.12122 7.60073,-4.43303 11.54963,-6.36367 0.32053,-0.15671 -0.41343,0.60462 -0.48506,0.95415 -0.0731,0.35691 -0.0285,0.73913 0.0659,1.091 0.46115,1.71744 1.87397,3.17393 2.95245,4.50572 3.21291,3.65959 7.23213,6.36863 11.59194,8.4622 3.02966,1.43028 6.27249,1.72951 9.56481,1.85636 4.80142,0.0649 9.3204,-1.0528 13.59427,-3.18732 -19.7618,11.14622 -10.87147,6.85746 -7.25318,3.34657 1.40053,-1.35897 2.57003,-2.93403 3.76188,-4.47112 4.43584,-5.77311 11.42356,-11.85464 18.75983,-12.20989 3.92119,0.55479 7.47104,2.49165 10.84306,4.4645 2.98711,1.89984 1.53045,0.93628 4.37268,2.8866 0,0 -12.16978,7.76932 -12.16978,7.76932 l 0,0 c -2.77183,-1.90147 -1.34516,-0.97059 -4.28366,-2.78706 -3.19666,-1.70479 -6.72898,-3.75421 -10.47271,-3.47264 -5.16021,1.96873 -1.27032,0.54648 10.58848,-6.40534 0.34825,-0.20415 -0.71568,0.37826 -1.046,0.6103 -1.29249,0.90791 -2.28353,2.15055 -3.21988,3.4029 -1.20763,1.57466 -2.37075,3.22777 -3.70457,4.69972 -4.63256,5.11231 -12.16792,7.7624 -17.50865,11.16843 -4.49187,1.88293 -9.20054,2.84225 -14.09344,2.69323 -3.4416,-0.2029 -6.75924,-0.76044 -9.85019,-2.39749 -4.43403,-2.33805 -8.5355,-5.23083 -11.90489,-8.97914 -1.57753,-1.89883 -3.70181,-4.10725 -3.81695,-6.74872 -0.0231,-0.53068 -0.21525,-1.26518 0.21315,-1.57925 4.24049,-3.10877 8.91086,-5.58403 13.36628,-8.37605 5.71894,-1.92896 11.94674,-0.93878 17.86661,-1.0733 3.85266,0.1452 7.93834,0.19336 11.26124,2.41092 0.67024,0.6057 1.27635,1.02647 1.65251,1.89441 2.63747,6.08572 -9.91415,9.25635 -15.50848,9.84014 -4.98666,0.0718 -9.97304,-0.20503 -14.95611,-0.36495 -4.24248,-0.15031 -8.37191,-0.16736 -12.38027,1.49149 -8.19075,2.72594 -16.63658,4.83254 -25.33313,4.7486 -4.94708,-0.26279 -10.14966,-0.43211 -14.49514,-3.09216 -2.10646,-1.6998 -4.09853,-3.76206 -3.61778,-6.6943 0.6898,-5.60396 -0.0894,-0.75041 13.48481,-7.40409 0.13598,-0.0667 -0.19955,0.22802 -0.30504,0.33666 -0.21021,0.21647 -0.43197,0.42155 -0.6418,0.63839 -0.30435,0.31452 -0.52845,0.7251 -0.90057,0.95548 -4.53232,2.80599 -9.18134,5.41894 -13.77201,8.12841 -3.75264,1.59955 -7.43747,1.52836 -11.4457,1.11974 -3.62599,-0.40183 -7.15313,-1.07939 -10.14744,-3.3198 -1.21341,-0.83904 -2.40489,-1.71751 -3.6511,-2.50796 -0.27922,-0.1771 -0.55041,-0.37198 -0.8511,-0.50951 -0.18916,-0.0865 -0.78094,-0.0465 -0.60418,-0.15613 4.06975,-2.52467 8.29404,-4.79126 12.44106,-7.18689 -0.1623,-0.0244 -0.36269,-0.18059 -0.48692,-0.0733 -0.57355,0.4953 -0.0422,3.74373 -0.36552,4.59774 -0.29415,2.02846 -0.8534,3.91367 -2.35555,5.39982 -3.60114,5.15859 -8.28578,5.98435 -14.92338,9.83825 -1.05652,0.61343 -2.30382,0.74421 -3.49505,0.70319 -3.09484,-0.48618 -5.99732,-1.70215 -8.858008,-2.94379 -3.327575,-1.76487 -6.443917,-3.84384 -9.255247,-6.36422 0,0 12.563895,-7.69916 12.563895,-7.69916 z"
         id="path2853"
         style="color:#000000;fill:#000000;fill-opacity:1;fill-rule:nonzero;stroke:none;stroke-width:10.60000038;marker:none;visibility:visible;display:inline;overflow:visible;enable-background:accumulate" />
      <path
         transform="translate(0,-496)"
         d="m 120.06415,249.01054 c 8.97511,-2.92007 17.91539,-5.96424 26.79766,-9.16859 9.46064,-3.02245 18.78887,-6.8489 28.5647,-8.76408 5.78094,-0.81043 10.5863,2.34644 15.35484,5.13787 5.45303,3.14749 11.30482,5.52726 17.33014,7.32084 4.19807,1.32763 7.67865,0.98326 11.78436,-0.3283 3.27312,-0.99892 6.38782,-2.40307 9.76763,-3.02151 0.50361,-6.7e-4 1.01437,-0.0865 1.51083,-0.002 1.18392,0.20158 2.80777,1.02987 3.85045,1.48066 2.15761,0.93282 4.29866,1.89526 6.44924,2.84444 2.3353,0.93512 1.19581,0.51435 3.41394,1.27449 0,0 -12.09101,8.15081 -12.09101,8.15081 l 0,0 c -2.21045,-0.86491 -1.07659,-0.398 -3.39816,-1.40904 -2.64972,-1.21406 -7.13457,-3.65675 -10.00324,-3.66902 -0.46609,-0.002 -0.92427,0.1212 -1.38641,0.1818 -3.27037,0.81939 -6.37722,2.13471 -9.62574,3.03218 -4.38741,1.10595 -7.87757,1.06056 -12.21064,-0.40883 -6.01197,-2.02634 -11.86734,-4.52026 -17.39834,-7.64148 -4.64859,-2.59182 -9.25296,-5.32773 -14.78541,-4.27794 -9.53256,2.00537 -18.72425,5.43257 -27.93417,8.53902 -9.15247,3.31951 -18.38011,6.41541 -27.51261,9.7891 0,0 11.52194,-9.06041 11.52194,-9.06041 z"
         id="path2857"
         style="color:#000000;fill:#000000;fill-opacity:1;fill-rule:nonzero;stroke:none;stroke-width:10.60000038;marker:none;visibility:visible;display:inline;overflow:visible;enable-background:accumulate" />
      <path
         transform="translate(0,-496)"
         d="m 83.305282,282.43483 c 6.718231,0.13325 13.438211,0.17383 20.157488,0.22701 13.51161,0.10638 27.02385,0.10356 40.53576,0.0745 9.32986,0.23213 18.70018,-0.61887 28.00506,0.26227 7.31972,1.16987 12.1534,6.22008 17.49515,10.9086 4.10009,3.4178 8.55878,8.66358 13.61039,10.73835 0.59283,0.24348 1.24367,0.31016 1.86551,0.46524 0.54064,-0.0667 1.10745,-0.0212 1.62194,-0.20024 0.54622,-0.19008 2.00001,-1.16224 1.4931,-0.88379 -3.61359,1.98498 -7.11933,4.17373 -10.81382,6.00373 -0.70013,0.3468 1.22413,-0.97633 1.7776,-1.52779 1.22842,-1.22394 2.3272,-2.75446 3.37621,-4.12122 3.20534,-4.30058 6.20325,-8.81705 9.97544,-12.65132 5.13245,-3.86038 4.01759,-3.12175 15.12816,-8.39547 0.80553,-0.38235 3.95063,1.5311 4.69081,1.99293 1.99606,1.31887 4.24728,1.88451 6.61934,1.78592 0.43958,-0.0895 0.89977,-0.10818 1.31875,-0.26849 0.49109,-0.18789 1.83792,-1.02253 1.38001,-0.76408 -3.711,2.09459 -7.39062,4.24624 -11.13936,6.27251 -0.4767,0.25766 0.89277,-0.61658 1.31159,-0.96041 0.75261,-0.61787 1.37954,-1.31144 2.05009,-2.01127 4.46625,-4.02874 2.97562,-2.80162 14.41116,-8.07725 0.44207,-0.20395 4.00023,2.70164 4.46387,3.09478 0.37226,0.33761 0.74453,0.67522 1.1168,1.01284 0,0 -12.4236,7.71075 -12.4236,7.71075 l 0,0 c -0.364,-0.31932 -0.72801,-0.63863 -1.09202,-0.95795 -0.70428,-0.55925 -1.35728,-1.12754 -2.14639,-1.56836 -0.30241,-0.16893 -0.61343,-0.34149 -0.95113,-0.41865 -0.22147,-0.0506 -0.87322,0.16543 -0.68001,0.0459 9.7389,-6.02355 16.14769,-8.91205 10.8126,-6.47353 -0.68841,0.72033 -1.31556,1.49877 -2.02128,2.20215 -4.88493,4.86874 -11.37849,9.11463 -18.29033,9.74124 -2.54618,-0.23162 -4.91657,-0.92842 -7.05139,-2.38262 -0.91256,-0.49781 -1.90912,-1.12258 -2.98666,-1.16834 -0.33971,-0.0144 -1.29902,0.30577 -1.01268,0.12242 8.06034,-5.16133 15.78354,-8.94113 9.9339,-6.04382 -4.11123,3.47976 -7.00206,8.17705 -10.19741,12.46146 -6.23639,8.5449 -5.97899,7.20441 -19.01061,14.34812 -1.30795,0.717 -2.31446,0.39611 -3.67664,0.24804 -0.66145,-0.25793 -1.35247,-0.4501 -1.98433,-0.7738 -5.20217,-2.665 -9.00048,-7.48942 -13.41067,-11.16829 -5.14612,-4.39477 -10.27077,-9.09384 -17.24954,-10.01381 -9.10174,-0.84098 -18.26847,-0.32499 -27.39484,-0.54016 -13.58031,-0.0293 -27.16094,-0.0308 -40.740952,0.0745 -6.927579,0.0537 -13.855781,0.0958 -20.782389,0.22701 0,0 11.905323,-8.64972 11.905323,-8.64972 z"
         id="path2859"
         style="color:#000000;fill:#000000;fill-opacity:1;fill-rule:nonzero;stroke:none;stroke-width:10.60000038;marker:none;visibility:visible;display:inline;overflow:visible;enable-background:accumulate" />
      <path
         transform="translate(0,-496)"
         d="m 80.56926,342.29919 c 8.542494,-5.46672 17.347256,-10.73356 26.70942,-14.71107 2.93144,-1.24542 7.21481,-2.75185 10.19945,-3.83377 7.60346,-2.28321 15.47537,-4.53909 23.49079,-4.51785 1.14926,0.003 2.29523,0.12301 3.44284,0.18451 2.81963,0.34299 5.65833,0.85455 8.31051,1.91199 2.31073,0.92129 4.45762,2.27055 6.72795,3.29372 5.84304,2.56663 12.16011,3.74267 18.50417,4.04754 4.70784,0.0868 9.36815,-0.74062 14.04885,-1.14899 3.59882,-0.18629 7.11861,0.42339 10.65645,0.95106 4.57397,0.5681 9.19385,0.59516 13.79578,0.67799 5.08019,0.13163 10.14716,0.0596 15.21481,-0.30184 0,0 -11.60588,8.54129 -11.60588,8.54129 l 0,0 c -5.07132,0.26007 -10.14053,0.24296 -15.21757,0.17238 -4.71304,-0.0346 -9.44923,-0.0374 -14.12693,-0.68764 -3.43742,-0.53379 -6.89318,-0.99546 -10.38246,-0.71601 -4.67378,0.43627 -9.35229,1.18552 -14.05866,0.8755 -6.45424,-0.5558 -12.85528,-1.83799 -18.81719,-4.4495 -2.23623,-0.99449 -4.38943,-2.27792 -6.68237,-3.13442 -2.55484,-0.95433 -5.25696,-1.42805 -7.96193,-1.68743 -9.09962,-0.31594 -17.70988,1.603 -26.29947,4.55531 -5.07969,1.88563 -10.054122,3.81062 -14.91181,6.22465 -1.424057,0.70769 -5.572609,3.05682 -4.233467,2.19923 2.898953,-1.8565 5.909513,-3.53522 8.921758,-5.20161 0.732706,-0.40534 -1.383986,0.94298 -2.075979,1.41447 0,0 -13.649062,5.34049 -13.649062,5.34049 z"
         id="path2861"
         style="color:#000000;fill:#000000;fill-opacity:1;fill-rule:nonzero;stroke:none;stroke-width:10.60000038;marker:none;visibility:visible;display:inline;overflow:visible;enable-background:accumulate" />
      <path
         transform="translate(0,-496)"
         d="m 122.88501,378.67672 c 5.96749,0.13225 11.93619,0.16291 17.90486,0.19635 10.39425,0.0464 20.78859,0.0308 31.18289,0.0376 9.89871,0.005 19.79751,0.0166 29.69588,-0.0746 5.05991,-0.1977 9.48998,-0.28987 14.256,1.54441 5.79572,2.98668 12.15901,4.11427 18.54374,5.05075 5.46419,0.61817 11.04354,1.13865 16.53219,0.46077 2.7322,-0.33744 5.12348,-0.93503 7.80776,-1.5294 5.7005,-1.34671 10.75089,-4.21355 15.75123,-7.13785 0,0 -11.18574,9.05465 -11.18574,9.05465 l 0,0 c -5.01651,2.83344 -10.16217,5.4394 -15.84994,6.64929 -2.98565,0.61103 -4.924,1.09183 -7.95987,1.38066 -5.53068,0.5262 -11.11524,-0.11067 -16.60053,-0.7769 -6.54785,-0.99314 -13.08383,-2.14006 -19.11969,-5.00093 -4.42435,-1.49731 -9.02986,-1.39074 -13.65882,-1.35208 -9.82992,-0.0929 -19.66031,-0.079 -29.49058,-0.0746 -10.42878,0.007 -20.8576,-0.009 -31.28632,0.0376 -6.14882,0.0339 -12.29765,0.0667 -18.44537,0.19635 0,0 11.92231,-8.66206 11.92231,-8.66206 z"
         id="path2863"
         style="color:#000000;fill:#000000;fill-opacity:1;fill-rule:nonzero;stroke:none;stroke-width:10.60000038;marker:none;visibility:visible;display:inline;overflow:visible;enable-background:accumulate" />
      <path
         transform="translate(0,-496)"
         d="m 262.98929,427.02254 c -4.78386,0.0236 -9.54921,-0.16738 -14.32347,-0.4487 -10.48504,-0.0984 -20.77706,-2.12844 -31.01352,-4.19589 -12.10689,-2.51673 -24.25712,-4.8088 -36.54393,-6.23486 -7.92606,-0.68053 -15.906,-1.3709 -23.86669,-1.01573 -3.98786,0.28004 -7.78264,1.35418 -11.51415,2.70774 -2.53399,1.202 -5.26236,1.73763 -8.02667,2.05959 -2.55599,0.22258 -5.12638,0.18363 -7.68971,0.18739 -2.20909,-0.20996 -4.10984,0.14117 -6.23984,0.56389 -1.97382,0.35595 -3.98451,0.35952 -5.98292,0.39756 -1.49159,0.0183 -0.74897,0.0111 -2.22788,0.0219 0,0 11.87487,-8.64633 11.87487,-8.64633 l 0,0 c 1.46682,-0.0196 0.73044,-0.006 2.20914,-0.0399 1.97128,-0.0719 3.94393,-0.1921 5.87738,-0.61214 2.1023,-0.3812 4.21039,-0.34327 6.3423,-0.30128 2.52938,-0.009 5.06906,-0.0119 7.58049,-0.35157 2.70277,-0.43205 5.29413,-1.20555 7.81984,-2.26686 3.75469,-1.25247 7.63203,-2.04729 11.59812,-2.21019 7.87605,-0.0646 15.7416,0.66877 23.56754,1.48715 12.27013,1.55356 24.40494,3.92999 36.5259,6.37086 10.3254,1.96602 20.71346,3.81586 31.26647,3.76123 4.89041,0.15391 9.77942,0.26993 14.67205,0.11636 0,0 -11.90532,8.64973 -11.90532,8.64973 z"
         id="path2865"
         style="color:#000000;fill:#000000;fill-opacity:1;fill-rule:nonzero;stroke:none;stroke-width:10.60000038;marker:none;visibility:visible;display:inline;overflow:visible;enable-background:accumulate" />
    </g>
  </g>
</svg>
