<?xml version="1.0" encoding="UTF-8" standalone="no"?>
<!-- Created with Inkscape (http://www.inkscape.org/) -->
<svg
   xmlns:dc="http://purl.org/dc/elements/1.1/"
   xmlns:cc="http://creativecommons.org/ns#"
   xmlns:rdf="http://www.w3.org/1999/02/22-rdf-syntax-ns#"
   xmlns:svg="http://www.w3.org/2000/svg"
   xmlns="http://www.w3.org/2000/svg"
   xmlns:xlink="http://www.w3.org/1999/xlink"
   xmlns:sodipodi="http://sodipodi.sourceforge.net/DTD/sodipodi-0.dtd"
   xmlns:inkscape="http://www.inkscape.org/namespaces/inkscape"
   width="600"
   height="450"
   id="svg2"
   sodipodi:version="0.32"
   inkscape:version="0.46"
   version="1.0"
   sodipodi:docname="splash.svg"
   inkscape:output_extension="org.inkscape.output.svg.inkscape"
   inkscape:export-filename="/home/tipote/src/dev/spectrogram/friture2/splash.png"
   inkscape:export-xdpi="90"
   inkscape:export-ydpi="90">
  <defs
     id="defs4">
    <inkscape:perspective
       sodipodi:type="inkscape:persp3d"
       inkscape:vp_x="0 : 526.18109 : 1"
       inkscape:vp_y="0 : 1000 : 0"
       inkscape:vp_z="744.09448 : 526.18109 : 1"
       inkscape:persp3d-origin="372.04724 : 350.78739 : 1"
       id="perspective10" />
    <filter
       inkscape:collect="always"
       id="filter3476">
      <feGaussianBlur
         inkscape:collect="always"
         stdDeviation="1.8825711"
         id="feGaussianBlur3478" />
    </filter>
  </defs>
  <sodipodi:namedview
     id="base"
     pagecolor="#000000"
     bordercolor="#666666"
     borderopacity="1.0"
     inkscape:pageopacity="1"
     inkscape:pageshadow="2"
     inkscape:zoom="1.1377778"
     inkscape:cx="300"
     inkscape:cy="225"
     inkscape:document-units="px"
     inkscape:current-layer="layer1"
     showgrid="false"
     inkscape:window-width="1280"
     inkscape:window-height="724"
     inkscape:window-x="0"
     inkscape:window-y="25" />
  <metadata
     id="metadata7">
    <rdf:RDF>
      <cc:Work
         rdf:about="">
        <dc:format>image/svg+xml</dc:format>
        <dc:type
           rdf:resource="http://purl.org/dc/dcmitype/StillImage" />
        <dc:title />
      </cc:Work>
    </rdf:RDF>
  </metadata>
  <g
     inkscape:label="Calque 1"
     inkscape:groupmode="layer"
     id="layer1"
     style="display:inline">
    <rect
       style="fill:#ffffff;fill-opacity:1;fill-rule:evenodd;stroke:none;stroke-width:3.83385825;marker:none;visibility:visible;display:inline;overflow:visible;enable-background:accumulate"
       id="rect2703"
       width="596"
       height="446"
       x="2"
       y="2" />
  </g>
  <g
     inkscape:groupmode="layer"
     id="layer2"
     inkscape:label="base">
    <g
       id="g3480"
       transform="matrix(1.6585293,0,0,1.6585293,-194.78158,-377.16554)">
      <path
         transform="translate(3.0004514,2.699505)"
         d="M 254.75,314.03125 C 250.08309,314.03141 245.23534,316.20224 242.0625,319.375 C 239.59654,321.84103 237.80184,325.28165 237.09375,328.8125 C 235.52344,329.01273 233.94411,329.37309 232.4375,329.90625 C 231.26822,329.31227 229.99457,328.95141 228.6875,328.84375 C 227.15737,328.71456 226.70797,328.74103 224.46875,328.6875 C 224.45836,328.67706 224.44794,328.66664 224.4375,328.65625 C 222.51146,328.61393 221.1933,328.57016 220.6875,328.53125 L 220.53125,328.53125 L 216.9375,328 L 217.03125,327.15625 C 217.37399,324.28736 216.47324,321.40887 214.5563,319.24708 C 212.63935,317.08529 209.88929,315.84667 207,315.84375 C 205.26278,315.84398 203.303,315.96302 197.875,316.09375 C 192.54002,316.22393 188.72562,316.25006 186.59375,316.25 L 167.9375,315.84375 C 165.07117,315.78568 162.3149,316.94694 160.3543,319.03864 C 158.39369,321.13035 157.41303,323.95592 157.65625,326.8125 C 158.16966,332.90944 158.4698,338.00303 158.59375,342.03125 C 158.59335,342.08333 158.59335,342.13542 158.59375,342.1875 C 158.77897,346.13892 158.87499,351.81723 158.875,359.0625 C 158.87499,365.9747 158.78444,371.88704 158.59375,376.78125 C 158.59335,376.83333 158.59335,376.88542 158.59375,376.9375 C 158.46885,381.74599 158.14876,386.38165 157.65625,390.9375 C 157.33673,393.835 158.28308,396.72945 160.25259,398.87855 C 162.2221,401.02765 165.02318,402.22235 167.9375,402.15625 L 177.09375,401.96875 L 185.8125,402.15625 C 188.77069,402.22319 191.60979,400.99119 193.58157,398.78497 C 195.55335,396.57874 196.45997,393.61963 196.0625,390.6875 C 195.6815,387.83022 195.4167,385.52159 195.3125,383.90625 C 195.25367,382.02441 195.24998,379.33538 195.25,375.3125 L 195.25,371.28125 C 197.1268,371.36955 198.40879,371.38458 199.96875,371.4375 C 199.94241,371.63213 199.93334,371.67651 199.90625,371.875 C 199.2035,377.02371 198.74762,380.91718 198.5,383.84375 C 198.04257,389.39838 202.16551,394.27603 207.71875,394.75 C 209.40148,394.89237 209.9507,394.87081 211.9375,394.90625 C 212.05208,394.9082 212.16667,394.9082 212.28125,394.90625 C 214.07858,394.87884 215.39432,394.89418 215.90625,394.9375 C 214.85754,394.84877 216.5948,395.08198 218.46875,395.4375 C 218.58296,395.46031 218.69757,395.48115 218.8125,395.5 C 220.93539,395.82299 222.63489,396.0095 224,396.125 C 226.84007,396.3664 229.65013,395.39808 231.73861,393.45835 C 233.82708,391.51863 235.00002,388.78764 234.96875,385.9375 C 234.92085,381.96888 234.92815,378.64229 235.03125,376 C 235.19861,373.29016 235.51152,369.3721 235.96875,363.96875 C 235.97025,363.95101 235.96721,363.9551 235.96875,363.9375 C 236.59834,364.24462 237.25813,364.4855 237.9375,364.65625 L 239.5,382.46875 C 239.61344,383.75499 239.65484,384.97625 239.65625,386.125 C 239.65269,387.44484 239.64787,388.82544 239.59375,390.3125 C 239.48555,393.27276 240.6807,396.13161 242.86357,398.13408 C 245.04645,400.13655 247.99753,401.08127 250.9375,400.71875 L 258.59375,399.75 L 266.15625,399.375 C 266.72327,400.17659 267.22605,400.99755 267.9375,401.71875 C 267.99896,401.79255 268.06146,401.86548 268.125,401.9375 C 272.66855,406.28157 278.67333,408.04261 284.6875,408.4375 C 287.25649,408.60615 289.88521,408.5838 292.5625,408.34375 C 295.27031,408.10093 297.89457,407.63146 300.4375,406.875 C 304.18175,405.76906 306.95498,402.60661 307.5625,398.75 L 308.0625,395.46875 C 313.00668,398.40986 318.94728,399.5551 324.5625,398.875 C 328.22842,398.43096 331.72276,397.05912 334.96875,395.21875 C 336.60658,395.86187 338.38386,396.06653 340.125,395.8125 L 347.03125,394.78125 L 347.25,394.75 L 347.53125,394.71875 L 354.46875,394.0625 C 357.06147,393.8107 359.45703,392.56814 361.15625,390.59375 C 362.46124,390.62514 363.65518,390.67013 364.09375,390.71875 C 363.46269,390.64877 364.90846,390.83982 366.65625,391.21875 C 366.78064,391.25239 366.90566,391.28364 367.03125,391.3125 C 369.1091,391.68417 370.73235,391.93588 372.15625,392.09375 C 374.22057,392.32015 376.30454,391.90554 378.125,390.90625 C 379.678,393.82957 381.51001,396.58426 383.9375,398.875 C 390.62544,405.18618 399.81218,408.24999 409.46875,408.25 C 413.18543,408.24999 416.81564,407.84215 420.34375,406.9375 C 423.99014,406.11705 427.20221,404.80498 430.4375,402.96875 C 432.84168,401.60125 434.58084,399.30872 435.25,396.625 C 435.51361,395.57037 435.76704,394.59214 436,393.71875 C 436.33514,392.64612 436.72113,391.43546 437.4375,389.15625 C 438.32122,386.34318 437.93318,383.28452 436.375,380.78125 C 438.27597,378.95095 439.38622,376.45009 439.46875,373.8125 L 439.5625,370.78125 C 439.57453,370.67725 439.58495,370.57307 439.59375,370.46875 C 439.59369,361.77091 437.14399,353.39461 431.40625,347.34375 C 425.59235,341.21287 417.07435,338.4688 408.3125,338.46875 C 406.14783,338.46876 404.00664,338.70238 401.90625,339.0625 C 401.98153,338.74233 402.04749,338.34158 402.125,338.03125 C 402.78876,335.35849 402.33379,332.53064 400.86521,330.20095 C 399.39662,327.87126 397.04144,326.24126 394.34375,325.6875 L 392.21875,325.25 C 391.91919,325.1842 391.6168,325.13206 391.3125,325.09375 C 388.36947,324.76748 385.25067,325.15024 382.34375,326.09375 C 381.20259,325.46398 379.95046,325.06075 378.65625,324.90625 C 377.01692,324.72477 376.60505,324.76765 374.375,324.65625 C 372.39265,324.56106 370.96238,324.42976 370.46875,324.375 L 363.90625,323.28125 C 359.56287,322.56242 355.25347,324.73608 353.25,328.65625 C 351.05888,327.26931 348.4187,326.77707 345.875,327.28125 C 344.75631,327.50494 343.46344,327.78156 341.875,328.1875 C 340.74322,328.47681 339.73031,328.68904 338.96875,328.78125 C 338.71966,328.81144 337.71392,328.89017 336.3125,328.9375 C 334.83021,328.98186 333.31944,329.00748 331.59375,329.03125 C 328.68807,329.08147 325.94443,330.37929 324.0625,332.59375 C 321.71235,330.88581 318.74118,330.27108 315.90625,330.90625 C 315.03357,331.10164 313.94844,331.38866 312.34375,331.78125 C 312.33333,331.78123 312.32292,331.78123 312.3125,331.78125 C 311.12106,332.07904 309.96328,332.30573 308.875,332.4375 C 308.97243,332.42569 307.92215,332.51448 306.5,332.5625 C 305.19562,332.60153 303.79353,332.59186 302.21875,332.59375 C 302.21949,327.25811 298.07481,322.83985 292.75,322.5 L 290.6875,322.375 C 289.01247,322.26785 287.33711,322.57929 285.8125,323.28125 C 283.02287,324.57347 280.64813,325.57218 278.6875,326.3125 C 278.64569,326.33305 278.60402,326.35388 278.5625,326.375 C 276.88092,327.03263 275.07764,327.58867 273.0625,328.03125 C 272.78875,328.09286 272.51768,328.16584 272.25,328.25 C 271.45398,324.88663 269.71344,321.68229 267.40625,319.375 C 264.28077,316.24972 259.41702,314.03138 254.75,314.03125 z M 297.75,381.84375 C 297.8358,382.12993 297.93567,382.404 298.03125,382.6875 C 297.9375,382.6862 297.84375,382.6862 297.75,382.6875 C 297.76661,382.27366 297.71884,382.32467 297.75,381.84375 z"
         inkscape:href="#path2441"
         id="path2460"
         style="font-size:98.4547348px;font-style:normal;font-variant:normal;font-weight:normal;font-stretch:normal;text-align:start;line-height:100%;writing-mode:lr-tb;text-anchor:start;fill:#2e3436;fill-opacity:1;stroke:none;display:inline;filter:url(#filter3476);font-family:Gentium;-inkscape-font-specification:Gentium"
         xlink:href="#path2441"
         inkscape:original="M 254.75 324.15625 C 252.64962 324.15632 250.794 324.95604 249.21875 326.53125 C 247.64346 328.10659 246.875 329.96219 246.875 332.0625 C 246.875 334.22856 247.64345 336.05292 249.21875 337.5625 C 250.79401 339.0722 252.64962 339.81256 254.75 339.8125 C 256.91599 339.81256 258.74035 339.0722 260.25 337.5625 C 261.82525 335.98729 262.62498 334.16293 262.625 332.0625 C 262.62498 329.96219 261.82526 328.10658 260.25 326.53125 C 258.6747 324.95605 256.85035 324.15631 254.75 324.15625 z M 167.71875 325.96875 C 168.24383 332.20427 168.55622 337.45243 168.6875 341.71875 C 168.88441 345.91954 168.99999 351.71125 169 359.0625 C 168.99999 366.08563 168.88441 372.13352 168.6875 377.1875 C 168.55622 382.24152 168.24383 387.17416 167.71875 392.03125 L 176.875 391.84375 L 186.03125 392.03125 C 185.6374 389.07761 185.35001 386.59725 185.21875 384.5625 C 185.15309 382.46215 185.12498 379.38197 185.125 375.3125 L 185.125 360.625 C 185.84697 360.62503 188.8428 360.79686 194.09375 361.125 C 199.34463 361.38757 203.36508 361.53128 206.1875 361.53125 L 205.90625 357 L 206.1875 352.5625 L 185.03125 353.34375 C 185.03123 353.21252 185.08746 350.47597 185.21875 345.09375 C 185.35 339.64597 185.43748 335.93789 185.4375 333.96875 L 190.84375 333.84375 C 192.09081 333.8438 194.65866 333.98752 198.53125 334.25 C 202.40376 334.51261 205.22778 334.65631 207 334.65625 C 206.67177 333.0154 206.49997 331.53153 206.5 330.21875 L 207 325.96875 C 206.5405 325.96881 203.57278 326.05629 198.125 326.1875 C 192.74278 326.31883 188.891 326.37507 186.59375 326.375 L 167.71875 325.96875 z M 290.0625 332.46875 C 287.07745 333.85149 284.47583 334.94079 282.25 335.78125 C 280.08962 336.62613 277.75486 337.34925 275.21875 337.90625 C 275.43109 340.6829 275.43921 343.49325 275.25 346.375 L 275.15625 347.5625 L 275.0625 349.03125 C 274.21105 348.97539 273.06589 348.90716 271.625 348.8125 C 270.25389 348.65674 269.21183 348.49086 268.5 348.3125 L 268.40625 351.46875 L 268.09375 354.59375 L 274.6875 354.9375 C 274.61438 356.05097 274.22343 360.12694 273.5625 367.1875 C 272.97137 374.18693 272.54671 379.94959 272.25 384.46875 C 271.95327 388.98795 272.90477 392.37432 275.125 394.625 C 277.41501 396.81447 280.82454 398.04702 285.34375 398.34375 C 287.43957 398.48134 289.53888 398.4711 291.65625 398.28125 C 293.77359 398.09138 295.75108 397.72635 297.5625 397.1875 L 298.25 392.78125 C 296.26361 392.97971 294.47811 393.04073 292.90625 392.9375 C 290.15543 392.75689 288.52592 391.66412 288 389.65625 C 287.54383 387.58719 287.4197 384.7585 287.65625 381.15625 L 289.5 355.90625 L 298.0625 356.5625 L 298.0625 353.21875 L 298.46875 350.28125 C 296.29446 350.33587 294.18657 350.28961 292.15625 350.15625 L 290.09375 350.03125 L 290.6875 341.1875 C 290.76488 340.00864 290.94169 338.56504 291.25 336.875 C 291.56257 335.11959 291.85538 333.69434 292.125 332.59375 L 290.0625 332.46875 z M 362.25 333.25 C 361.95342 335.92475 361.64465 339.96545 361.3125 345.34375 C 360.98032 350.72213 360.66431 354.70306 360.375 357.3125 C 360.08567 359.92199 359.54387 363.78423 358.71875 368.84375 C 357.89361 373.90329 357.31332 377.70577 357.03125 380.25 C 357.42266 380.29339 358.62217 380.35098 360.59375 380.4375 C 362.57254 380.45879 364.1097 380.53329 365.21875 380.65625 C 365.74063 380.71412 366.94232 380.93828 368.8125 381.34375 C 370.75512 381.69123 372.23744 381.91552 373.28125 382.03125 C 373.33826 377.94319 373.46845 374.44739 373.65625 371.5625 C 373.90926 368.68486 374.33714 364.53967 374.9375 359.125 C 375.29914 355.86319 376.12376 353.2246 377.40625 351.1875 C 378.76118 349.09244 380.90807 348.20579 383.84375 348.53125 C 384.69179 348.62531 385.62907 348.95167 386.6875 349.53125 C 387.7531 350.04566 388.76678 350.61965 389.6875 351.25 C 389.96956 348.7058 390.31568 346.06927 390.75 343.34375 C 391.19146 340.55309 391.71866 337.97138 392.3125 335.59375 L 390.1875 335.15625 C 386.86039 334.7874 383.98291 335.7 381.5625 337.875 C 379.14927 339.98488 377.1703 342.81351 375.65625 346.34375 L 375.0625 346.28125 C 375.32287 343.93277 375.6117 341.87197 375.9375 340.125 C 376.33571 338.32011 376.88652 336.61434 377.53125 334.96875 C 377.27028 334.93986 376.04227 334.85826 373.875 334.75 C 371.77294 334.64906 370.25704 334.53881 369.34375 334.4375 L 362.25 333.25 z M 347.84375 337.1875 C 347.00451 337.35531 345.84998 337.62306 344.375 338 C 342.89995 338.37706 341.49069 338.65471 340.1875 338.8125 C 339.34038 338.91516 338.17069 338.9801 336.65625 339.03125 C 335.20691 339.07462 333.56688 339.13079 331.71875 339.15625 C 332.0423 341.82787 332.61061 345.74842 333.4375 350.9375 C 334.26434 356.12668 334.84052 360.01864 335.15625 362.625 L 335.6875 369.5 C 335.59642 372.02346 335.09789 374.17435 334.1875 375.9375 C 333.27706 377.70068 331.7154 378.73169 329.5 379 C 327.1542 379.28414 325.24783 378.66658 323.8125 377.1875 C 322.36923 375.64331 321.38829 372.62107 320.84375 368.125 L 319.875 360.90625 L 319.34375 355.8125 L 318.125 340.78125 C 317.48127 340.92538 316.3553 341.20101 314.75 341.59375 C 313.20982 341.9787 311.6576 342.2794 310.09375 342.46875 C 309.44215 342.54773 308.35823 342.60511 306.84375 342.65625 C 305.39444 342.69962 303.84019 342.71698 302.1875 342.71875 C 302.43216 344.73876 302.99321 348.45916 303.84375 353.84375 C 304.75945 359.22051 305.36391 363.23471 305.6875 365.90625 L 306.84375 376.28125 C 307.36465 380.58184 309.15843 383.90993 312.21875 386.25 C 315.33632 388.51704 319.04315 389.36463 323.34375 388.84375 C 326.21077 388.49648 328.93687 387.45251 331.5 385.6875 C 334.12822 383.91461 336.23031 381.7595 337.84375 379.25 L 338.65625 385.8125 L 346.0625 384.71875 L 353.5 384 C 353.19215 381.45875 352.59494 377.67596 351.71875 372.625 C 350.84245 367.5741 350.24527 363.79126 349.9375 361.25 C 349.62176 358.64363 349.29273 354.62474 348.90625 349.25 C 348.51967 343.87534 348.16729 339.85911 347.84375 337.1875 z M 212.5625 337.59375 C 212.33559 340.27531 212.09843 344.30236 211.90625 349.6875 C 211.71406 355.0727 211.53384 359.07143 211.3125 361.6875 C 211.09113 364.30363 210.63077 368.17074 209.9375 373.25 C 209.24423 378.32928 208.77832 382.1368 208.5625 384.6875 C 208.95491 384.7207 210.15185 384.74605 212.125 384.78125 C 214.10367 384.75107 215.63814 384.78091 216.75 384.875 C 217.27321 384.91927 218.46365 385.14331 220.34375 385.5 C 222.29474 385.79684 223.79727 385.97396 224.84375 386.0625 C 224.79441 381.97434 224.82478 378.48255 224.9375 375.59375 C 225.11557 372.7105 225.4469 368.55346 225.90625 363.125 C 226.18293 359.85488 226.92715 357.19478 228.15625 355.125 C 229.45622 352.99542 231.58809 352.0635 234.53125 352.3125 C 235.38146 352.38447 236.33311 352.69814 237.40625 353.25 C 238.48486 353.73653 239.50069 354.26879 240.4375 354.875 C 240.65329 352.32432 240.94922 349.67338 241.3125 346.9375 C 241.68122 344.13629 242.12443 341.54852 242.65625 339.15625 L 240.5 338.78125 C 237.16443 338.49906 234.33176 339.48153 231.96875 341.71875 C 229.6112 343.89067 227.703 346.74407 226.28125 350.3125 L 225.71875 350.28125 C 225.91795 347.92679 226.15725 345.84858 226.4375 344.09375 C 226.78864 342.27911 227.24203 340.56803 227.84375 338.90625 C 227.58211 338.88416 226.38809 338.83311 224.21875 338.78125 C 222.11478 338.73502 220.60312 338.67127 219.6875 338.59375 L 212.5625 337.59375 z M 262 342.15625 C 260.57309 342.41393 259.14561 342.67993 257.71875 342.9375 C 256.29184 343.19518 254.96101 343.35922 253.71875 343.46875 C 252.54185 343.57259 251.20283 343.62318 249.6875 343.625 C 248.23755 343.62114 246.82207 343.63473 245.4375 343.625 L 247 352.28125 L 249.5625 381.59375 C 249.69513 383.09756 249.77939 384.60966 249.78125 386.125 C 249.77734 387.57495 249.74524 389.10103 249.6875 390.6875 L 257.6875 389.6875 L 266.0625 389.25 C 265.31844 385.29626 264.75946 381.86531 264.375 379 C 264.05587 376.12893 263.65455 372.04602 263.1875 366.75 L 261.875 350.75 L 262 342.15625 z M 408.3125 348.59375 C 401.09247 348.5938 395.2164 350.90549 390.6875 355.5 C 386.15857 360.09459 383.87499 365.99877 383.875 373.21875 C 383.875 381.02951 386.21481 387.1336 390.875 391.53125 C 395.53517 395.92889 401.72363 398.12499 409.46875 398.125 C 412.488 398.12499 415.28391 397.81262 417.84375 397.15625 C 420.46917 396.56552 423.00892 395.56587 425.4375 394.1875 C 425.7 393.13732 425.95614 392.10955 426.21875 391.125 C 426.54688 390.07482 427.0592 388.42227 427.78125 386.125 L 426.5 385.625 C 424.46522 387.33156 422.64086 388.52801 421 389.25 C 419.35905 389.97201 417.4191 390.34375 415.1875 390.34375 C 410.46164 390.34376 406.72546 388.74744 403.96875 385.53125 C 401.27763 382.31508 399.93749 378.29147 399.9375 373.5 L 429.375 373.5 L 429.46875 370.46875 C 429.4687 363.51131 427.67245 358.11945 424.0625 354.3125 C 420.45245 350.50563 415.20431 348.59379 408.3125 348.59375 z M 407.71875 352.9375 C 410.47545 352.93755 412.35603 354.22148 413.40625 356.78125 C 414.4564 359.34111 414.99995 362.24947 415 365.53125 L 414.90625 367.90625 L 399.9375 367.90625 L 399.84375 365.9375 C 399.84373 362.59007 400.41229 359.59424 401.59375 356.96875 C 402.77519 354.27769 404.83071 352.93755 407.71875 352.9375 z "
         inkscape:radius="10.111875"
         sodipodi:type="inkscape:offset" />
      <path
         d="M 254.75,317.09375 C 250.85489,317.09388 246.91117,318.8389 244.21875,321.53125 C 241.56001,324.19007 239.92401,328.04314 239.84375,331.78125 C 237.21373,331.74956 234.60368,332.27913 232.1875,333.34375 C 231.10628,332.50105 229.80343,331.99077 228.4375,331.875 C 227.28882,331.77802 226.5932,331.77178 224.375,331.71875 C 222.44801,331.67641 221.14487,331.61153 220.5,331.5625 L 213.625,330.59375 C 213.62497,330.59279 213.59378,330.59471 213.59375,330.59375 L 213.59375,330.5 L 214.03125,326.78125 C 214.26027,324.77796 213.62326,322.77217 212.28034,321.26811 C 210.93743,319.76405 209.01634,318.90476 207,318.90625 C 205.64701,318.90643 203.40269,318.99412 197.96875,319.125 C 192.61956,319.25552 188.77535,319.31257 186.59375,319.3125 L 167.875,318.90625 C 165.87362,318.86661 163.94921,319.67703 162.57912,321.13646 C 161.20904,322.5959 160.52166,324.56761 160.6875,326.5625 C 161.20442,332.70112 161.49884,337.83768 161.625,341.9375 C 161.62463,341.97917 161.62463,342.02083 161.625,342.0625 C 161.81374,346.08891 161.93749,351.78536 161.9375,359.0625 C 161.93749,366.00806 161.81756,371.96399 161.625,376.90625 C 161.62479,376.9375 161.62479,376.96875 161.625,377 C 161.49818,381.88233 161.18981,386.63481 160.6875,391.28125 C 160.4742,393.30177 161.14025,395.31643 162.51586,396.81166 C 163.89147,398.30689 165.84374,399.13823 167.875,399.09375 L 177.03125,398.90625 L 185.875,399.09375 C 187.93767,399.1363 189.91608,398.27597 191.29157,396.7383 C 192.66707,395.20063 193.30249,393.13895 193.03125,391.09375 C 192.64639,388.20749 192.39359,385.83521 192.28125,384.09375 C 192.22037,382.1462 192.18748,379.34939 192.1875,375.3125 L 192.1875,368.09375 C 192.98466,368.14018 192.75433,368.13114 193.65625,368.1875 C 193.6875,368.18771 193.71875,368.18771 193.75,368.1875 C 197.86646,368.39334 200.66672,368.44929 203.40625,368.5 C 203.22905,369.91126 203.16911,370.58433 202.9375,372.28125 C 202.2376,377.40908 201.76931,381.28021 201.53125,384.09375 C 201.21212,387.9742 204.08974,391.38263 207.96875,391.71875 C 209.26346,391.82829 210.0173,391.80838 212,391.84375 C 212.07291,391.84488 212.14584,391.84488 212.21875,391.84375 C 214.07061,391.8155 215.46391,391.84766 216.15625,391.90625 C 215.58024,391.85751 217.15545,392.08163 219.03125,392.4375 C 219.1142,392.45985 219.19754,392.48069 219.28125,392.5 C 221.35245,392.81513 222.98071,392.98636 224.25,393.09375 C 226.23388,393.2584 228.19528,392.57926 229.65257,391.22308 C 231.10986,389.86691 231.92805,387.95933 231.90625,385.96875 C 231.85792,381.96419 231.89401,378.59142 232,375.875 C 232.17058,373.11301 232.47964,369.12965 232.9375,363.71875 C 233.11491,361.62186 233.54116,360.30153 233.96875,359.375 C 233.7332,359.34482 233.73146,359.29673 234.1875,359.53125 C 234.29036,359.5859 234.39456,359.638 234.5,359.6875 C 235.33348,360.06346 236.02941,360.44731 236.59375,360.8125 C 237.82855,361.61041 239.28132,362.00364 240.75,361.9375 L 242.53125,382.21875 C 242.65046,383.57042 242.7172,384.86601 242.71875,386.125 C 242.71509,387.48397 242.68021,388.92055 242.625,390.4375 C 242.54782,392.50929 243.38366,394.51058 244.91144,395.91206 C 246.43923,397.31353 248.50505,397.97399 250.5625,397.71875 L 258.5,396.71875 L 258.5625,396.71875 L 266.4375,396.3125 C 266.81608,396.29066 267.1923,396.23841 267.5625,396.15625 C 268.2472,397.39201 269.06959,398.55555 270.09375,399.59375 C 270.14502,399.64664 270.19711,399.69873 270.25,399.75 C 274.11587,403.44615 279.31039,405.04088 284.875,405.40625 C 287.3017,405.56556 289.77234,405.53746 292.28125,405.3125 C 294.8115,405.0856 297.2708,404.65977 299.59375,403.96875 C 302.20841,403.19005 304.14197,400.9768 304.5625,398.28125 L 305.25,393.875 C 305.58666,391.71271 304.90331,389.51637 303.3993,387.92677 C 301.8953,386.33717 299.7401,385.53341 297.5625,385.75 C 296.43808,385.86234 295.66167,385.8399 294.8125,385.84375 C 294.72475,384.70216 294.57693,383.78465 294.71875,381.625 L 296.03125,363.5 L 297.53125,363.625 C 297.74988,363.63516 297.96887,363.63516 298.1875,363.625 C 298.30915,364.49098 298.57658,366.09222 298.65625,366.75 L 299.8125,377.0625 C 299.81241,377.08333 299.81241,377.10417 299.8125,377.125 C 300.51405,382.91702 303.36645,388.37975 307.9375,391.875 C 307.97882,391.90671 308.02049,391.93796 308.0625,391.96875 C 312.65831,395.31074 318.49641,396.56429 324.1875,395.875 C 327.98375,395.41518 331.62665,393.95118 334.90625,391.8125 C 336.33063,392.70315 338.02556,393.05765 339.6875,392.8125 L 347.09375,391.71875 L 354.1875,391.03125 C 356.48217,390.80627 358.52309,389.47676 359.65625,387.46875 C 359.91162,387.47869 359.97382,387.48651 360.28125,387.5 C 360.36458,387.50147 360.44792,387.50147 360.53125,387.5 C 362.37198,387.5198 363.72878,387.60892 364.4375,387.6875 C 364.15315,387.65597 365.52791,387.86309 367.3125,388.25 C 367.39545,388.27235 367.47879,388.29319 367.5625,388.3125 C 369.59969,388.6769 371.1904,388.9173 372.5,389.0625 C 375.06533,389.34452 377.58059,388.20666 379.0625,386.09375 C 380.59469,390.12421 382.91237,393.74433 386.03125,396.6875 C 392.10941,402.42325 400.38698,405.18749 409.46875,405.1875 C 412.9757,405.18749 416.35681,404.82999 419.59375,404 C 422.93312,403.24863 425.9448,402.04229 428.9375,400.34375 C 430.62269,399.38916 431.84263,397.78517 432.3125,395.90625 C 432.57578,394.85296 432.82062,393.84432 433.0625,392.9375 C 433.39553,391.87162 433.81317,390.53464 434.53125,388.25 C 435.48681,385.21472 434.29739,381.91503 431.625,380.1875 C 434.42162,379.24643 436.33998,376.66785 436.4375,373.71875 L 436.53125,370.6875 C 436.53238,370.61459 436.53238,370.54166 436.53125,370.46875 C 436.53119,362.29428 434.28538,354.81358 429.1875,349.4375 C 424.03633,344.00549 416.512,341.5313 408.3125,341.53125 C 404.69829,341.53128 401.24934,342.17814 397.96875,343.21875 C 398.33042,341.12734 398.73931,339.10698 399.1875,337.3125 C 399.65934,335.44057 399.34541,333.45712 398.31855,331.82241 C 397.29169,330.18769 395.64117,329.04383 393.75,328.65625 L 391.625,328.21875 C 391.40784,328.17726 391.18885,328.14597 390.96875,328.125 C 387.93958,327.78918 384.8346,328.33962 382,329.5 C 380.94707,328.63473 379.66655,328.09213 378.3125,327.9375 C 377.08766,327.80191 376.42992,327.79795 374.21875,327.6875 C 372.2004,327.59058 370.74483,327.47501 370.125,327.40625 L 363.40625,326.28125 C 361.49193,325.96298 359.53093,326.44537 357.98272,327.61539 C 356.4345,328.78541 355.43513,330.54025 355.21875,332.46875 C 355.11154,333.43562 355.01172,335.36237 354.90625,336.59375 C 354.89914,336.53411 354.88211,336.40244 354.875,336.34375 C 354.64055,334.38662 353.5999,332.61614 352.00398,331.45925 C 350.40806,330.30236 348.40172,329.86405 346.46875,330.25 C 345.4341,330.45688 344.17932,330.75903 342.625,331.15625 C 341.38999,331.47195 340.26819,331.66932 339.34375,331.78125 C 338.91482,331.83323 337.84166,331.92027 336.40625,331.96875 C 334.93387,332.01281 333.38751,332.06947 331.625,332.09375 C 328.1137,332.14644 325.17299,334.76781 324.71875,338.25 C 323.46612,334.98207 320.01154,333.12192 316.59375,333.875 C 315.78992,334.05498 314.66737,334.32611 313.0625,334.71875 C 313.05208,334.71873 313.04167,334.71873 313.03125,334.71875 C 311.73494,335.04275 310.48129,335.28842 309.25,335.4375 C 309.12218,335.45299 308.04366,335.54479 306.59375,335.59375 C 305.23913,335.63429 303.79542,335.65453 302.1875,335.65625 C 300.88689,335.65436 299.61095,336.0112 298.5,336.6875 C 298.67085,335.82126 298.86501,334.83229 299,334.28125 C 299.50177,332.24403 299.07303,330.08919 297.82968,328.39919 C 296.58632,326.70919 294.65674,325.65855 292.5625,325.53125 L 290.5,325.40625 C 289.32771,325.33881 288.15707,325.56435 287.09375,326.0625 C 284.24535,327.38194 281.79038,328.38582 279.75,329.15625 C 279.72912,329.16656 279.70828,329.17698 279.6875,329.1875 C 277.86194,329.90144 275.85931,330.52301 273.6875,331 C 272.00754,331.36699 270.51886,332.33352 269.5,333.71875 C 269.56997,333.16528 269.68749,332.6178 269.6875,332.0625 C 269.68746,328.1673 267.94231,324.22368 265.25,321.53125 C 262.59068,318.8721 258.64518,317.09386 254.75,317.09375 z M 268.15625,338.34375 C 268.15625,338.375 268.15625,338.60417 268.15625,338.6875 C 268.12567,338.63502 268.09442,338.58293 268.0625,338.53125 C 268.0938,338.46829 268.12576,338.40716 268.15625,338.34375 z M 192.375,341 C 193.49278,341.04129 194.97385,341.10315 198.0625,341.3125 C 201.23667,341.52775 203.31046,341.57793 205.28125,341.625 C 205.2076,342.81999 205.13127,344.07865 205.0625,345.53125 L 192.28125,346 C 192.28849,345.70021 192.27348,345.59962 192.28125,345.28125 C 192.33094,343.21881 192.33986,342.56819 192.375,341 z M 325.75,347.125 C 326.00704,348.85327 326.12716,349.91891 326.46875,352.0625 C 327.28946,357.21322 327.83172,361.04769 328.125,363.46875 L 328.59375,369.46875 C 328.57885,369.7264 328.49487,369.77232 328.46875,370 C 328.25455,369.19731 328.02703,368.53654 327.875,367.28125 C 327.8648,367.24993 327.85438,367.21868 327.84375,367.1875 L 326.875,359.96875 L 326.375,355.09375 L 325.75,347.125 z M 409.125,380.5625 L 421.46875,380.5625 C 420.08671,381.65498 418.82756,382.48587 418.15625,382.78125 C 417.57676,383.03622 416.63383,383.28125 415.1875,383.28125 C 412.05398,383.28126 410.79838,382.63458 409.34375,380.9375 C 409.24862,380.82381 409.21419,380.67796 409.125,380.5625 z"
         inkscape:href="#path2441"
         id="path2458"
         style="font-size:98.4547348px;font-style:normal;font-variant:normal;font-weight:normal;font-stretch:normal;text-align:start;line-height:100%;writing-mode:lr-tb;text-anchor:start;fill:#729fcf;fill-opacity:1;stroke:#204a87;stroke-width:2;stroke-miterlimit:4;stroke-dasharray:none;display:inline;font-family:Gentium;-inkscape-font-specification:Gentium"
         xlink:href="#path2441"
         inkscape:original="M 254.75 324.15625 C 252.64962 324.15632 250.794 324.95604 249.21875 326.53125 C 247.64346 328.10659 246.875 329.96219 246.875 332.0625 C 246.875 334.22856 247.64345 336.05292 249.21875 337.5625 C 250.79401 339.0722 252.64962 339.81256 254.75 339.8125 C 256.91599 339.81256 258.74035 339.0722 260.25 337.5625 C 261.82525 335.98729 262.62498 334.16293 262.625 332.0625 C 262.62498 329.96219 261.82526 328.10658 260.25 326.53125 C 258.6747 324.95605 256.85035 324.15631 254.75 324.15625 z M 167.71875 325.96875 C 168.24383 332.20427 168.55622 337.45243 168.6875 341.71875 C 168.88441 345.91954 168.99999 351.71125 169 359.0625 C 168.99999 366.08563 168.88441 372.13352 168.6875 377.1875 C 168.55622 382.24152 168.24383 387.17416 167.71875 392.03125 L 176.875 391.84375 L 186.03125 392.03125 C 185.6374 389.07761 185.35001 386.59725 185.21875 384.5625 C 185.15309 382.46215 185.12498 379.38197 185.125 375.3125 L 185.125 360.625 C 185.84697 360.62503 188.8428 360.79686 194.09375 361.125 C 199.34463 361.38757 203.36508 361.53128 206.1875 361.53125 L 205.90625 357 L 206.1875 352.5625 L 185.03125 353.34375 C 185.03123 353.21252 185.08746 350.47597 185.21875 345.09375 C 185.35 339.64597 185.43748 335.93789 185.4375 333.96875 L 190.84375 333.84375 C 192.09081 333.8438 194.65866 333.98752 198.53125 334.25 C 202.40376 334.51261 205.22778 334.65631 207 334.65625 C 206.67177 333.0154 206.49997 331.53153 206.5 330.21875 L 207 325.96875 C 206.5405 325.96881 203.57278 326.05629 198.125 326.1875 C 192.74278 326.31883 188.891 326.37507 186.59375 326.375 L 167.71875 325.96875 z M 290.0625 332.46875 C 287.07745 333.85149 284.47583 334.94079 282.25 335.78125 C 280.08962 336.62613 277.75486 337.34925 275.21875 337.90625 C 275.43109 340.6829 275.43921 343.49325 275.25 346.375 L 275.15625 347.5625 L 275.0625 349.03125 C 274.21105 348.97539 273.06589 348.90716 271.625 348.8125 C 270.25389 348.65674 269.21183 348.49086 268.5 348.3125 L 268.40625 351.46875 L 268.09375 354.59375 L 274.6875 354.9375 C 274.61438 356.05097 274.22343 360.12694 273.5625 367.1875 C 272.97137 374.18693 272.54671 379.94959 272.25 384.46875 C 271.95327 388.98795 272.90477 392.37432 275.125 394.625 C 277.41501 396.81447 280.82454 398.04702 285.34375 398.34375 C 287.43957 398.48134 289.53888 398.4711 291.65625 398.28125 C 293.77359 398.09138 295.75108 397.72635 297.5625 397.1875 L 298.25 392.78125 C 296.26361 392.97971 294.47811 393.04073 292.90625 392.9375 C 290.15543 392.75689 288.52592 391.66412 288 389.65625 C 287.54383 387.58719 287.4197 384.7585 287.65625 381.15625 L 289.5 355.90625 L 298.0625 356.5625 L 298.0625 353.21875 L 298.46875 350.28125 C 296.29446 350.33587 294.18657 350.28961 292.15625 350.15625 L 290.09375 350.03125 L 290.6875 341.1875 C 290.76488 340.00864 290.94169 338.56504 291.25 336.875 C 291.56257 335.11959 291.85538 333.69434 292.125 332.59375 L 290.0625 332.46875 z M 362.25 333.25 C 361.95342 335.92475 361.64465 339.96545 361.3125 345.34375 C 360.98032 350.72213 360.66431 354.70306 360.375 357.3125 C 360.08567 359.92199 359.54387 363.78423 358.71875 368.84375 C 357.89361 373.90329 357.31332 377.70577 357.03125 380.25 C 357.42266 380.29339 358.62217 380.35098 360.59375 380.4375 C 362.57254 380.45879 364.1097 380.53329 365.21875 380.65625 C 365.74063 380.71412 366.94232 380.93828 368.8125 381.34375 C 370.75512 381.69123 372.23744 381.91552 373.28125 382.03125 C 373.33826 377.94319 373.46845 374.44739 373.65625 371.5625 C 373.90926 368.68486 374.33714 364.53967 374.9375 359.125 C 375.29914 355.86319 376.12376 353.2246 377.40625 351.1875 C 378.76118 349.09244 380.90807 348.20579 383.84375 348.53125 C 384.69179 348.62531 385.62907 348.95167 386.6875 349.53125 C 387.7531 350.04566 388.76678 350.61965 389.6875 351.25 C 389.96956 348.7058 390.31568 346.06927 390.75 343.34375 C 391.19146 340.55309 391.71866 337.97138 392.3125 335.59375 L 390.1875 335.15625 C 386.86039 334.7874 383.98291 335.7 381.5625 337.875 C 379.14927 339.98488 377.1703 342.81351 375.65625 346.34375 L 375.0625 346.28125 C 375.32287 343.93277 375.6117 341.87197 375.9375 340.125 C 376.33571 338.32011 376.88652 336.61434 377.53125 334.96875 C 377.27028 334.93986 376.04227 334.85826 373.875 334.75 C 371.77294 334.64906 370.25704 334.53881 369.34375 334.4375 L 362.25 333.25 z M 347.84375 337.1875 C 347.00451 337.35531 345.84998 337.62306 344.375 338 C 342.89995 338.37706 341.49069 338.65471 340.1875 338.8125 C 339.34038 338.91516 338.17069 338.9801 336.65625 339.03125 C 335.20691 339.07462 333.56688 339.13079 331.71875 339.15625 C 332.0423 341.82787 332.61061 345.74842 333.4375 350.9375 C 334.26434 356.12668 334.84052 360.01864 335.15625 362.625 L 335.6875 369.5 C 335.59642 372.02346 335.09789 374.17435 334.1875 375.9375 C 333.27706 377.70068 331.7154 378.73169 329.5 379 C 327.1542 379.28414 325.24783 378.66658 323.8125 377.1875 C 322.36923 375.64331 321.38829 372.62107 320.84375 368.125 L 319.875 360.90625 L 319.34375 355.8125 L 318.125 340.78125 C 317.48127 340.92538 316.3553 341.20101 314.75 341.59375 C 313.20982 341.9787 311.6576 342.2794 310.09375 342.46875 C 309.44215 342.54773 308.35823 342.60511 306.84375 342.65625 C 305.39444 342.69962 303.84019 342.71698 302.1875 342.71875 C 302.43216 344.73876 302.99321 348.45916 303.84375 353.84375 C 304.75945 359.22051 305.36391 363.23471 305.6875 365.90625 L 306.84375 376.28125 C 307.36465 380.58184 309.15843 383.90993 312.21875 386.25 C 315.33632 388.51704 319.04315 389.36463 323.34375 388.84375 C 326.21077 388.49648 328.93687 387.45251 331.5 385.6875 C 334.12822 383.91461 336.23031 381.7595 337.84375 379.25 L 338.65625 385.8125 L 346.0625 384.71875 L 353.5 384 C 353.19215 381.45875 352.59494 377.67596 351.71875 372.625 C 350.84245 367.5741 350.24527 363.79126 349.9375 361.25 C 349.62176 358.64363 349.29273 354.62474 348.90625 349.25 C 348.51967 343.87534 348.16729 339.85911 347.84375 337.1875 z M 212.5625 337.59375 C 212.33559 340.27531 212.09843 344.30236 211.90625 349.6875 C 211.71406 355.0727 211.53384 359.07143 211.3125 361.6875 C 211.09113 364.30363 210.63077 368.17074 209.9375 373.25 C 209.24423 378.32928 208.77832 382.1368 208.5625 384.6875 C 208.95491 384.7207 210.15185 384.74605 212.125 384.78125 C 214.10367 384.75107 215.63814 384.78091 216.75 384.875 C 217.27321 384.91927 218.46365 385.14331 220.34375 385.5 C 222.29474 385.79684 223.79727 385.97396 224.84375 386.0625 C 224.79441 381.97434 224.82478 378.48255 224.9375 375.59375 C 225.11557 372.7105 225.4469 368.55346 225.90625 363.125 C 226.18293 359.85488 226.92715 357.19478 228.15625 355.125 C 229.45622 352.99542 231.58809 352.0635 234.53125 352.3125 C 235.38146 352.38447 236.33311 352.69814 237.40625 353.25 C 238.48486 353.73653 239.50069 354.26879 240.4375 354.875 C 240.65329 352.32432 240.94922 349.67338 241.3125 346.9375 C 241.68122 344.13629 242.12443 341.54852 242.65625 339.15625 L 240.5 338.78125 C 237.16443 338.49906 234.33176 339.48153 231.96875 341.71875 C 229.6112 343.89067 227.703 346.74407 226.28125 350.3125 L 225.71875 350.28125 C 225.91795 347.92679 226.15725 345.84858 226.4375 344.09375 C 226.78864 342.27911 227.24203 340.56803 227.84375 338.90625 C 227.58211 338.88416 226.38809 338.83311 224.21875 338.78125 C 222.11478 338.73502 220.60312 338.67127 219.6875 338.59375 L 212.5625 337.59375 z M 262 342.15625 C 260.57309 342.41393 259.14561 342.67993 257.71875 342.9375 C 256.29184 343.19518 254.96101 343.35922 253.71875 343.46875 C 252.54185 343.57259 251.20283 343.62318 249.6875 343.625 C 248.23755 343.62114 246.82207 343.63473 245.4375 343.625 L 247 352.28125 L 249.5625 381.59375 C 249.69513 383.09756 249.77939 384.60966 249.78125 386.125 C 249.77734 387.57495 249.74524 389.10103 249.6875 390.6875 L 257.6875 389.6875 L 266.0625 389.25 C 265.31844 385.29626 264.75946 381.86531 264.375 379 C 264.05587 376.12893 263.65455 372.04602 263.1875 366.75 L 261.875 350.75 L 262 342.15625 z M 408.3125 348.59375 C 401.09247 348.5938 395.2164 350.90549 390.6875 355.5 C 386.15857 360.09459 383.87499 365.99877 383.875 373.21875 C 383.875 381.02951 386.21481 387.1336 390.875 391.53125 C 395.53517 395.92889 401.72363 398.12499 409.46875 398.125 C 412.488 398.12499 415.28391 397.81262 417.84375 397.15625 C 420.46917 396.56552 423.00892 395.56587 425.4375 394.1875 C 425.7 393.13732 425.95614 392.10955 426.21875 391.125 C 426.54688 390.07482 427.0592 388.42227 427.78125 386.125 L 426.5 385.625 C 424.46522 387.33156 422.64086 388.52801 421 389.25 C 419.35905 389.97201 417.4191 390.34375 415.1875 390.34375 C 410.46164 390.34376 406.72546 388.74744 403.96875 385.53125 C 401.27763 382.31508 399.93749 378.29147 399.9375 373.5 L 429.375 373.5 L 429.46875 370.46875 C 429.4687 363.51131 427.67245 358.11945 424.0625 354.3125 C 420.45245 350.50563 415.20431 348.59379 408.3125 348.59375 z M 407.71875 352.9375 C 410.47545 352.93755 412.35603 354.22148 413.40625 356.78125 C 414.4564 359.34111 414.99995 362.24947 415 365.53125 L 414.90625 367.90625 L 399.9375 367.90625 L 399.84375 365.9375 C 399.84373 362.59007 400.41229 359.59424 401.59375 356.96875 C 402.77519 354.27769 404.83071 352.93755 407.71875 352.9375 z "
         inkscape:radius="7.0710678"
         sodipodi:type="inkscape:offset" />
      <path
         d="M 168.98517,359.06033 C 168.98516,351.70908 168.88671,345.93308 168.6898,341.73229 C 168.55852,337.46598 168.23034,332.21506 167.70526,325.97954 L 186.60857,326.37336 C 188.90582,326.37342 192.74555,326.30778 198.12777,326.17645 C 203.57556,326.04524 206.5292,325.9796 206.9887,325.97954 L 206.49642,330.21309 C 206.49638,331.52588 206.66047,333.0027 206.9887,334.64355 C 205.21647,334.64361 202.3941,334.51234 198.52159,334.24973 C 194.649,333.98725 192.08918,333.85597 190.84212,333.85592 L 185.42711,333.95437 C 185.42709,335.92352 185.36145,339.63198 185.2302,345.07976 C 185.0989,350.46199 185.03327,353.21872 185.03329,353.34995 L 206.20106,352.56231 L 205.90569,356.99278 L 206.20106,361.5217 C 203.37865,361.52173 199.34201,361.39045 194.09113,361.12788 C 188.84018,360.79973 185.85372,360.63563 185.13175,360.6356 L 185.13175,375.30536 C 185.13172,379.37483 185.16454,382.45975 185.2302,384.5601 C 185.36145,386.59484 185.62399,389.08902 186.01784,392.04266 L 176.86155,391.84575 L 167.70526,392.04266 C 168.23034,387.18557 168.55852,382.23002 168.6898,377.176 C 168.88671,372.12201 168.98516,366.08346 168.98517,359.06033 M 211.30024,361.69828 C 211.52159,359.0822 211.72837,355.08157 211.92056,349.69637 C 212.11274,344.31124 212.32227,340.27791 212.54918,337.59635 L 219.67758,338.59475 C 220.5932,338.67228 222.103,338.73416 224.20697,338.78039 C 226.37631,338.83226 227.59179,338.86924 227.85343,338.89133 C 227.2517,340.55311 226.77527,342.29131 226.42413,344.10595 C 226.14388,345.86079 225.90415,347.91544 225.70495,350.2699 L 226.29357,350.3197 C 227.71531,346.75127 229.60494,343.8811 231.96249,341.70918 C 234.3255,339.47195 237.1748,338.49443 240.51037,338.77662 L 242.65207,339.15545 C 242.12025,341.54773 241.66997,344.14447 241.30125,346.94568 C 240.93797,349.68156 240.64844,352.32484 240.43265,354.87552 C 239.49584,354.26931 238.48813,353.72295 237.40952,353.23642 C 236.33638,352.68456 235.37472,352.37263 234.52451,352.30066 C 231.58135,352.05166 229.45979,352.99195 228.15982,355.12153 C 226.93072,357.1913 226.17783,359.86124 225.90115,363.13136 C 225.4418,368.55981 225.12309,372.71564 224.94502,375.59889 C 224.8323,378.48768 224.8006,381.97617 224.84994,386.06433 C 223.80347,385.97579 222.30473,385.78311 220.35374,385.48627 C 218.47364,385.12958 217.272,384.92909 216.74879,384.88482 C 215.63693,384.79074 214.09166,384.7588 212.11299,384.78898 C 210.13984,384.75377 208.95705,384.71955 208.56464,384.68635 C 208.78046,382.13564 209.23502,378.32065 209.92829,373.24137 C 210.62155,368.1621 211.07887,364.31441 211.30024,361.69828 M 254.7438,324.17071 C 256.84415,324.17078 258.68197,324.95842 260.25727,326.53362 C 261.83252,328.10896 262.62016,329.94678 262.62018,332.04709 C 262.62016,334.14752 261.83252,335.98534 260.25727,337.56055 C 258.74761,339.07025 256.90979,339.82507 254.7438,339.82501 C 252.64342,339.82507 250.8056,339.07025 249.23034,337.56055 C 247.65505,336.05097 246.86742,334.21315 246.86742,332.04709 C 246.86742,329.94678 247.65505,328.10896 249.23034,326.53362 C 250.8056,324.95842 252.64342,324.17078 254.7438,324.17071 M 249.57151,381.5975 L 246.98529,352.27336 L 245.43089,343.61396 C 246.81546,343.62368 248.23273,343.63047 249.68268,343.63433 C 251.19801,343.63252 252.54411,343.57969 253.72101,343.47585 C 254.96327,343.36633 256.29785,343.18274 257.72476,342.92506 C 259.15162,342.66748 260.5785,342.40986 262.00541,342.15218 L 261.87525,350.76248 L 263.18706,366.75719 C 263.65412,372.05322 264.04719,376.13674 264.36632,379.00781 C 264.75079,381.87312 265.31506,385.28264 266.05912,389.23638 L 257.69688,389.67738 L 249.68075,390.68086 C 249.7385,389.09438 249.76933,387.57616 249.77324,386.12621 C 249.77138,384.61088 249.70414,383.10131 249.57151,381.5975 M 268.0884,354.5998 L 268.39307,351.46248 L 268.50124,348.31224 C 269.21308,348.49059 270.25455,348.65763 271.62566,348.81339 C 273.06656,348.90805 274.21273,348.9833 275.06418,349.03916 L 275.16094,347.56551 L 275.23835,346.3866 C 275.42755,343.50485 275.41598,340.67564 275.20364,337.89899 C 277.73975,337.34199 280.08799,336.64107 282.24837,335.79619 C 284.47421,334.95574 287.07963,333.84414 290.06468,332.4614 L 292.12778,332.59686 C 291.85816,333.69745 291.56706,335.12545 291.25449,336.88086 C 290.94618,338.5709 290.75332,340.00535 290.67594,341.18421 L 290.09538,350.0261 L 292.1585,350.16156 C 294.18883,350.29492 296.29112,350.33428 298.46541,350.27966 L 298.07541,353.21406 L 298.05258,356.56723 L 289.51186,355.90778 L 287.65758,381.14339 C 287.42104,384.74565 287.53086,387.5813 287.98703,389.65036 C 288.51295,391.65823 290.15133,392.75247 292.90215,392.93308 C 294.47402,393.0363 296.25315,392.98866 298.23954,392.7902 L 297.5563,397.18533 C 295.74488,397.72418 293.78052,398.08853 291.66318,398.2784 C 289.54581,398.46826 287.4392,398.49438 285.34338,398.35679 C 280.82417,398.06005 277.41957,396.81696 275.12956,394.62749 C 272.90932,392.37682 271.94758,388.9919 272.24431,384.4727 C 272.54103,379.95353 272.98496,374.19423 273.57609,367.1948 C 274.23701,360.13423 274.60403,356.04722 274.67715,354.93375 L 268.0884,354.5998 M 323.34436,388.85595 C 319.04376,389.37684 315.33468,388.50378 312.21711,386.23674 C 309.15678,383.89665 307.36618,380.57632 306.84528,376.27573 L 305.68814,365.90341 C 305.36455,363.23187 304.7449,359.20772 303.8292,353.83096 C 302.97865,348.44637 302.43104,344.74408 302.18638,342.72407 C 303.83906,342.72229 305.39006,342.69972 306.83937,342.65635 C 308.35384,342.6052 309.43687,342.54014 310.08847,342.46116 C 311.65232,342.2718 313.20432,341.98464 314.7445,341.59969 C 316.34981,341.20696 317.47433,340.93851 318.11806,340.79438 L 319.34292,355.8197 L 319.86078,360.91403 L 320.83458,368.13498 C 321.37913,372.63105 322.37304,375.65119 323.81631,377.19538 C 325.25164,378.67445 327.1422,379.27191 329.488,378.98777 C 331.70341,378.71945 333.26635,377.70368 334.17679,375.9405 C 335.08718,374.17734 335.58791,372.03402 335.67899,369.51056 L 335.14351,362.63322 C 334.82779,360.02685 334.2565,356.12907 333.42966,350.93989 C 332.60277,345.7508 332.02753,341.82044 331.70398,339.14882 C 333.55211,339.12337 335.20084,339.08896 336.65018,339.04559 C 338.16462,338.99444 339.3454,338.91754 340.19252,338.81488 C 341.49569,338.65709 342.88479,338.38967 344.35984,338.01261 C 345.83481,337.63566 346.9919,337.36327 347.83114,337.19546 C 348.15469,339.86708 348.50974,343.89022 348.89632,349.26488 C 349.28281,354.63963 349.63392,358.63019 349.94966,361.23656 C 350.25742,363.77783 350.84944,367.57393 351.72574,372.62483 C 352.60193,377.67578 353.19396,381.47186 353.50181,384.01311 L 346.04987,384.71735 L 338.64528,385.81257 L 337.85209,379.26396 C 336.23864,381.77345 334.1178,383.91465 331.48958,385.68754 C 328.92646,387.45254 326.21138,388.50868 323.34436,388.85595 M 360.37572,357.32599 C 360.66504,354.71655 360.97579,350.72265 361.30797,345.34427 C 361.64013,339.96597 361.9545,335.93945 362.25108,333.2647 L 369.35109,334.44815 C 370.26439,334.54946 371.77207,334.65059 373.87413,334.75153 C 376.04138,334.85979 377.25549,334.92837 377.51646,334.95726 C 376.87172,336.60283 376.35024,338.32805 375.95203,340.13294 C 375.62623,341.8799 375.33316,343.92762 375.07279,346.2761 L 375.65992,346.3412 C 377.17396,342.81095 379.13761,339.9909 381.55084,337.88102 C 383.97125,335.70601 386.845,334.80291 390.17211,335.17176 L 392.30322,335.60616 C 391.70938,337.9838 391.19172,340.56796 390.75026,343.35862 C 390.31595,346.08413 389.95778,348.71899 389.67572,351.26319 C 388.755,350.63283 387.76185,350.06044 386.69625,349.54603 C 385.63783,348.96644 384.68459,348.62961 383.83655,348.53555 C 380.90087,348.21009 378.75557,349.09488 377.40064,351.18994 C 376.11814,353.22704 375.29607,355.8765 374.93443,359.13831 C 374.33406,364.55298 373.90738,368.69912 373.65437,371.57676 C 373.46656,374.46164 373.34415,377.94813 373.28714,382.03619 C 372.24333,381.92046 370.75012,381.68887 368.8075,381.34139 C 366.93732,380.93593 365.7413,380.70426 365.21942,380.64639 C 364.11037,380.52343 362.56647,380.45131 360.58768,380.43002 C 358.6161,380.3435 357.43461,380.27853 357.0432,380.23514 C 357.32528,377.69091 357.87889,373.88903 358.70403,368.82949 C 359.52916,363.76998 360.08639,359.93548 360.37572,357.32599 M 408.3125,348.59375 C 401.09247,348.5938 395.2164,350.90549 390.6875,355.5 C 386.15857,360.09459 383.87499,365.99877 383.875,373.21875 C 383.875,381.02951 386.21481,387.1336 390.875,391.53125 C 395.53517,395.92889 401.72363,398.12499 409.46875,398.125 C 412.488,398.12499 415.28391,397.81262 417.84375,397.15625 C 420.46917,396.56552 423.00892,395.56587 425.4375,394.1875 C 425.7,393.13732 425.95614,392.10955 426.21875,391.125 C 426.54688,390.07482 427.0592,388.42227 427.78125,386.125 L 426.5,385.625 C 424.46522,387.33156 422.64086,388.52801 421,389.25 C 419.35905,389.97201 417.4191,390.34375 415.1875,390.34375 C 410.46164,390.34376 406.72546,388.74744 403.96875,385.53125 C 401.27763,382.31508 399.93749,378.29147 399.9375,373.5 L 429.375,373.5 L 429.46875,370.46875 C 429.4687,363.51131 427.67245,358.11945 424.0625,354.3125 C 420.45245,350.50563 415.20431,348.59379 408.3125,348.59375 z M 407.71875,352.9375 C 410.47545,352.93755 412.35603,354.22148 413.40625,356.78125 C 414.4564,359.34111 414.99995,362.24947 415,365.53125 L 414.90625,367.90625 L 399.9375,367.90625 L 399.84375,365.9375 C 399.84373,362.59007 400.41229,359.59424 401.59375,356.96875 C 402.77519,354.27769 404.83071,352.93755 407.71875,352.9375 z"
         style="font-size:98.4547348px;font-style:normal;font-variant:normal;font-weight:normal;font-stretch:normal;text-align:start;line-height:100%;writing-mode:lr-tb;text-anchor:start;fill:#eeeeec;fill-opacity:1;stroke:#4e9a06;stroke-width:2;stroke-miterlimit:4;stroke-dasharray:none;display:inline;font-family:Gentium;-inkscape-font-specification:Gentium"
         id="path2441" />
    </g>
  </g>
</svg>
