<?xml version="1.0" encoding="UTF-8" standalone="no"?>
<!-- Created with Inkscape (http://www.inkscape.org/) -->
<svg
   xmlns:dc="http://purl.org/dc/elements/1.1/"
   xmlns:cc="http://creativecommons.org/ns#"
   xmlns:rdf="http://www.w3.org/1999/02/22-rdf-syntax-ns#"
   xmlns:svg="http://www.w3.org/2000/svg"
   xmlns="http://www.w3.org/2000/svg"
   xmlns:sodipodi="http://sodipodi.sourceforge.net/DTD/sodipodi-0.dtd"
   xmlns:inkscape="http://www.inkscape.org/namespaces/inkscape"
   width="16px"
   height="16px"
   id="svg3297"
   sodipodi:version="0.32"
   inkscape:version="0.46"
   sodipodi:docname="statistics.svg"
   inkscape:output_extension="org.inkscape.output.svg.inkscape">
  <defs
     id="defs3299">
    <inkscape:perspective
       sodipodi:type="inkscape:persp3d"
       inkscape:vp_x="0 : 8 : 1"
       inkscape:vp_y="0 : 1000 : 0"
       inkscape:vp_z="16 : 8 : 1"
       inkscape:persp3d-origin="8 : 5.3333333 : 1"
       id="perspective3305" />
  </defs>
  <sodipodi:namedview
     id="base"
     pagecolor="#ffffff"
     bordercolor="#666666"
     borderopacity="1.0"
     inkscape:pageopacity="0.0"
     inkscape:pageshadow="2"
     inkscape:zoom="22.197802"
     inkscape:cx="8"
     inkscape:cy="8"
     inkscape:current-layer="layer1"
     showgrid="true"
     inkscape:grid-bbox="true"
     inkscape:document-units="px"
     inkscape:snap-bbox="true"
     inkscape:object-paths="true"
     inkscape:object-nodes="true"
     objecttolerance="11"
     gridtolerance="11"
     guidetolerance="11"
     inkscape:snap-global="false"
     showguides="true"
     inkscape:guide-bbox="true"
     inkscape:window-width="640"
     inkscape:window-height="763"
     inkscape:window-x="389"
     inkscape:window-y="44">
    <inkscape:grid
       type="xygrid"
       id="grid3307"
       visible="true"
       enabled="true" />
  </sodipodi:namedview>
  <metadata
     id="metadata3302">
    <rdf:RDF>
      <cc:Work
         rdf:about="">
        <dc:format>image/svg+xml</dc:format>
        <dc:type
           rdf:resource="http://purl.org/dc/dcmitype/StillImage" />
      </cc:Work>
    </rdf:RDF>
  </metadata>
  <g
     id="layer1"
     inkscape:label="Layer 1"
     inkscape:groupmode="layer">
    <path
       style="font-size:17.91237831px;font-style:normal;font-variant:normal;font-weight:normal;font-stretch:normal;fill:#000000;fill-opacity:1;stroke:none;stroke-width:1px;stroke-linecap:butt;stroke-linejoin:miter;stroke-opacity:1;font-family:Bitstream Charter;-inkscape-font-specification:Bitstream Charter"
       d="M 3.6130119,1.8153613 C 2.0008994,1.8153613 0.92615512,3.1946168 0.92615512,5.5590484 C 0.92615512,7.9593047 1.9829871,9.3206479 3.6130119,9.3206479 C 5.2430367,9.3206479 6.2998686,7.9413923 6.2998686,5.5590484 C 6.2998686,3.1946168 5.2251243,1.8153613 3.6130119,1.8153613 M 11.261597,2.0303099 L 3.6130119,14.049516 L 4.6877546,14.049516 L 12.354252,2.0303099 L 11.261597,2.0303099 M 3.5771871,2.460207 C 4.4907175,2.460207 5.0101774,3.499127 5.0101774,5.5590484 C 5.0101774,7.6189699 4.5086299,8.6758022 3.5771871,8.6758022 C 2.6636567,8.6758022 2.1800216,7.6189699 2.1800216,5.5590484 C 2.1800216,3.5170393 2.6815691,2.460207 3.5771871,2.460207 M 12.390077,6.7591778 C 10.777965,6.7591778 9.7032205,8.1384332 9.7032205,10.502865 C 9.7032205,12.903121 10.760052,14.264464 12.390077,14.264464 C 14.020102,14.264464 15.076934,12.885209 15.076934,10.502865 C 15.076934,8.1384332 14.00219,6.7591778 12.390077,6.7591778 M 12.354252,7.386111 C 13.267783,7.386111 13.787243,8.4429434 13.787243,10.502865 C 13.787243,12.562786 13.285695,13.619619 12.354252,13.619619 C 11.440722,13.619619 10.957087,12.562786 10.957087,10.502865 C 10.957087,8.4608557 11.458634,7.386111 12.354252,7.386111"
       id="text2401" />
  </g>
</svg>
