<?xml version="1.0" encoding="UTF-8" standalone="no"?>
<!-- Created with Inkscape (http://www.inkscape.org/) -->

<svg
   xmlns:dc="http://purl.org/dc/elements/1.1/"
   xmlns:cc="http://creativecommons.org/ns#"
   xmlns:rdf="http://www.w3.org/1999/02/22-rdf-syntax-ns#"
   xmlns:svg="http://www.w3.org/2000/svg"
   xmlns="http://www.w3.org/2000/svg"
   xmlns:sodipodi="http://sodipodi.sourceforge.net/DTD/sodipodi-0.dtd"
   xmlns:inkscape="http://www.inkscape.org/namespaces/inkscape"
   width="512"
   height="512"
   id="svg3297"
   sodipodi:version="0.32"
   inkscape:version="0.47 r22583"
   sodipodi:docname="statistics.svg"
   inkscape:output_extension="org.inkscape.output.svg.inkscape"
   version="1.1">
  <defs
     id="defs3299">
    <inkscape:perspective
       sodipodi:type="inkscape:persp3d"
       inkscape:vp_x="0 : 8 : 1"
       inkscape:vp_y="0 : 1000 : 0"
       inkscape:vp_z="16 : 8 : 1"
       inkscape:persp3d-origin="8 : 5.3333333 : 1"
       id="perspective3305" />
    <filter
       inkscape:collect="always"
       id="filter3610"
       color-interpolation-filters="sRGB">
      <feGaussianBlur
         inkscape:collect="always"
         stdDeviation="0.18076097"
         id="feGaussianBlur3612" />
    </filter>
  </defs>
  <sodipodi:namedview
     id="base"
     pagecolor="#7b6464"
     bordercolor="#666666"
     borderopacity="1.0"
     inkscape:pageopacity="1"
     inkscape:pageshadow="2"
     inkscape:zoom="1.0078125"
     inkscape:cx="256"
     inkscape:cy="250.84038"
     inkscape:current-layer="layer1"
     showgrid="true"
     inkscape:grid-bbox="true"
     inkscape:document-units="px"
     inkscape:snap-bbox="true"
     inkscape:object-paths="true"
     inkscape:object-nodes="true"
     objecttolerance="11"
     gridtolerance="11"
     guidetolerance="11"
     inkscape:snap-global="false"
     showguides="true"
     inkscape:guide-bbox="true"
     inkscape:window-width="1280"
     inkscape:window-height="778"
     inkscape:window-x="-8"
     inkscape:window-y="-8"
     inkscape:window-maximized="1">
    <inkscape:grid
       type="xygrid"
       id="grid3307"
       visible="true"
       enabled="true"
       empspacing="5"
       snapvisiblegridlinesonly="true" />
  </sodipodi:namedview>
  <metadata
     id="metadata3302">
    <rdf:RDF>
      <cc:Work
         rdf:about="">
        <dc:format>image/svg+xml</dc:format>
        <dc:type
           rdf:resource="http://purl.org/dc/dcmitype/StillImage" />
      </cc:Work>
    </rdf:RDF>
  </metadata>
  <g
     id="layer1"
     inkscape:label="Layer 1"
     inkscape:groupmode="layer"
     transform="translate(0,496)">
    <g
       id="g3672">
      <path
         transform="matrix(0.93404009,0,0,0.93404009,17.245425,-15.696398)"
         d="m 137.90625,-446.21875 c -23.85111,4.6e-4 -47.322355,6.12904 -67.875,17.96875 a 37.722251,37.722251 0 0 0 -0.03125,0 c -23.357905,13.45663 -40.307552,35.90473 -50.28125,61.6875 -9.223324,23.84355 -14.0000099,48.71624 -14,73.78125 -9.7e-6,16.65121 1.9950503,33.00155 6.09375,48.78125 4.47589,17.23249 12.368021,33.3937 23.59375,46.9375 11.401219,13.75611 26.433137,24.60814 43.15625,31.125 15.624323,6.08911 32.37858,9.03141 49.34375,9.03125 7.76337,5e-5 15.45794,-0.70015 23.03125,-1.9375 l -37.625,69.53125 a 37.722251,37.722251 0 0 0 33.96875,55.6875 c 15.18778,-0.323146 25.20159,-0.46875 28.96875,-0.46875 6.65838,0 14.79188,0.123305 24.375,0.4375 a 37.722251,37.722251 0 0 0 35.09375,-21.03125 l 30.09375,-61.125 0.0937,-0.21875 0.34375,-0.65625 2.09375,-3.9375 c 2.40076,10.10625 5.75448,19.74505 10.40625,28.84375 10.23684,20.02453 25.80408,37.237771 45.53125,47.75 18.55351,9.887326 39.61279,14.312495 61.1875,14.3125 18.39708,-5e-6 36.48382,-3.180254 53.3125,-9.84375 18.8232,-7.453715 35.1664,-20.55939 47.1875,-36.78125 11.5363,-15.569153 19.66643,-33.59472 24.46875,-52.90625 4.46099,-17.94294 6.74946,-36.23381 6.75,-54.625 -5.3e-4,-26.86789 -4.42571,-51.65967 -15.71875,-73.40625 -10.4596,-20.13891 -26.16748,-37.4903 -46.28125,-47.8125 -18.27002,-9.3748 -38.8566,-13.68723 -59.9375,-13.6875 -7.9604,9e-5 -15.86328,0.7124 -23.625,2.03125 l 37.75,-69.9375 a 37.722251,37.722251 0 0 0 -34.3125,-55.59375 c -10.70388,0.31984 -19.205,0.46905 -25.21875,0.46875 -7.25004,3.1e-4 -15.9616,-0.15172 -25.9375,-0.46875 a 37.722251,37.722251 0 0 0 -34.625,20.25 L 254.0625,-354.5 c -2.12394,-8.66102 -4.92922,-17.02902 -8.5625,-25.03125 -9.56091,-21.05581 -25.20305,-39.34801 -45.21875,-50.75 -18.80051,-10.70854 -40.42061,-15.93704 -62.375,-15.9375 z"
         id="path3646"
         style="font-size:500px;font-style:normal;font-variant:normal;font-weight:normal;font-stretch:normal;text-align:start;line-height:125%;writing-mode:lr-tb;text-anchor:start;fill:#ffffff;fill-opacity:1;stroke:none;font-family:Eras Bold ITC;-inkscape-font-specification:Eras Bold ITC"
         inkscape:original="M 137.90625 -408.5 C 120.16528 -408.49966 103.81764 -404.18847 88.84375 -395.5625 C 73.869753 -386.93589 62.555962 -372.74384 54.90625 -352.96875 C 47.256498 -333.1931 43.437492 -313.12606 43.4375 -292.78125 C 43.437492 -279.10917 45.057281 -266.00111 48.3125 -253.46875 C 51.567692 -240.93603 56.950499 -230.15804 64.4375 -221.125 C 71.924442 -212.09165 81.182246 -205.40676 92.25 -201.09375 C 103.31764 -196.78047 115.21086 -194.62488 127.90625 -194.625 C 146.1353 -194.62488 162.39571 -198.84883 176.71875 -207.3125 C 191.04151 -215.7759 202.08121 -229.28891 209.8125 -247.84375 C 217.54344 -266.39825 221.40606 -287.08833 221.40625 -309.875 C 221.40606 -330.87084 217.99201 -348.88189 211.15625 -363.9375 C 204.32014 -378.99253 194.48291 -390.17546 181.625 -397.5 C 168.76679 -404.82388 154.18218 -408.49966 137.90625 -408.5 z M 322.71875 -404.59375 L 215.3125 -198.53125 L 146.46875 -71.34375 C 161.7681 -71.66927 171.69257 -71.8125 176.25 -71.8125 C 183.41131 -71.8125 191.94646 -71.66927 201.875 -71.34375 L 232.40625 -133.34375 L 322.96875 -305.96875 L 376.1875 -404.59375 C 365.28223 -404.26789 356.5166 -404.09342 349.84375 -404.09375 C 342.03094 -404.09342 332.97236 -404.26789 322.71875 -404.59375 z M 135.46875 -362.125 C 142.6301 -362.12471 148.64833 -357.78227 153.53125 -349.15625 C 158.41394 -340.52968 160.87488 -328.08828 160.875 -311.8125 C 160.87488 -292.60655 158.00899 -275.89758 152.3125 -261.65625 C 146.61577 -247.41454 138.89052 -240.28108 129.125 -240.28125 C 121.47518 -240.28108 115.36972 -244.46141 110.8125 -252.84375 C 106.25514 -261.22572 103.96868 -273.97245 103.96875 -291.0625 C 103.96868 -302.78101 105.27076 -314.58699 107.875 -326.46875 C 110.47909 -338.34999 114.2421 -347.24647 119.125 -353.1875 C 124.00772 -359.12797 129.44652 -362.12471 135.46875 -362.125 z M 395.25 -281.0625 C 377.34601 -281.06229 361.1416 -276.8507 346.65625 -268.46875 C 332.17027 -260.0864 320.98735 -246.16845 313.09375 -226.71875 C 305.1996 -207.26874 301.24974 -187.14571 301.25 -166.3125 C 301.24974 -142.5494 304.93788 -123.42312 312.34375 -108.9375 C 319.74906 -94.451799 329.66116 -83.904284 342.03125 -77.3125 C 354.40072 -70.720704 368.86685 -67.437504 385.46875 -67.4375 C 399.62854 -67.437504 412.78022 -69.823569 424.90625 -74.625 C 437.0315 -79.426424 447.27367 -87.500635 455.65625 -98.8125 C 464.03798 -110.12431 470.09983 -123.28836 473.84375 -138.34375 C 477.5868 -153.39901 479.4683 -168.57542 479.46875 -183.875 C 479.4683 -206.49856 475.6493 -225.17628 468 -239.90625 C 460.34983 -254.63589 450.33813 -265.1834 437.96875 -271.53125 C 425.59857 -277.8787 411.36291 -281.06229 395.25 -281.0625 z M 393.28125 -234.4375 C 401.4189 -234.43734 407.69884 -230.0389 412.09375 -221.25 C 416.4879 -212.46079 418.68712 -200.07539 418.6875 -184.125 C 418.68712 -175.66136 418.10769 -167.718 416.96875 -160.3125 C 415.82904 -152.90682 414.12201 -145.76099 411.84375 -138.84375 C 409.56473 -131.92637 407.00418 -126.54357 404.15625 -122.71875 C 401.30757 -118.89384 398.57256 -116.33329 395.96875 -115.03125 C 393.36423 -113.72913 390.58559 -113.09371 387.65625 -113.09375 C 383.26137 -113.09371 379.44237 -114.35217 376.1875 -116.875 C 372.93196 -119.39774 370.28417 -122.76817 368.25 -127 C 366.21517 -131.23171 364.72624 -136.12233 363.75 -141.65625 C 362.77311 -147.19003 362.28092 -154.68481 362.28125 -164.125 C 362.28092 -176.49469 363.49576 -188.21343 365.9375 -199.28125 C 368.37857 -210.34882 371.9235 -218.9712 376.5625 -225.15625 C 381.20083 -231.34098 386.77048 -234.43734 393.28125 -234.4375 z "
         inkscape:radius="37.718479"
         sodipodi:type="inkscape:offset" />
      <path
         d="m 146.06277,-397.24866 c 15.20237,3.1e-4 28.80857,3.42087 40.81865,10.26167 12.00981,6.84141 21.20729,17.29311 27.59249,31.35511 6.38488,14.06254 9.57739,30.89927 9.57756,50.51022 -1.7e-4,21.28367 -3.61075,40.59079 -10.83176,57.92144 -7.22133,17.33096 -17.521,29.949 -30.89904,37.85416 -13.37829,7.9054 -28.58075,11.85804 -45.60742,11.85793 -11.858,1.1e-4 -22.9558,-2.01422 -33.29342,-6.04299 -10.337726,-4.02853 -19.003129,-10.26153 -25.996232,-18.69905 -6.99316,-8.43722 -12.009971,-18.50885 -15.050451,-30.21491 -3.040505,-11.70573 -4.56075,-23.94371 -4.560743,-36.71398 -7e-6,-19.00287 3.572571,-37.7399 10.717746,-56.21115 7.145137,-18.47073 17.710847,-31.73488 31.69716,-39.79248 13.98622,-8.057 29.26468,-12.08566 45.83546,-12.08597 z m -2.28037,43.32705 c -5.625,2.7e-4 -10.71783,2.77473 -15.27848,8.32336 -4.56083,5.54916 -8.05739,13.87251 -10.48971,24.97006 -2.43247,11.09804 -3.64866,22.11983 -3.64859,33.06539 -7e-5,15.96279 2.12827,27.85871 6.38503,35.68781 4.25662,7.82944 9.95755,11.74407 17.10279,11.74391 9.12138,1.6e-4 16.34255,-6.65092 21.66352,-19.95325 5.32075,-13.30197 7.98119,-28.9225 7.9813,-46.86163 -1.1e-4,-15.20223 -2.28049,-26.83211 -6.84111,-34.88967 -4.56085,-8.05705 -10.18576,-12.08571 -16.87475,-12.08598 z m 10.26168,271.592228 64.30646,-118.807348 100.33634,-192.46334 c 9.57729,0.30437 18.01465,0.45639 25.31213,0.45608 6.23271,3.1e-4 14.44204,-0.15171 24.628,-0.45608 l -49.71209,92.12701 -84.60177,161.22225 -28.50465,57.921428 c -9.27365,-0.304049 -17.25495,-0.456074 -23.9439,-0.456074 -4.25682,0 -13.53032,0.152025 -27.82052,0.456074 z M 386.41391,-278.21328 c 15.0501,2e-4 28.35225,2.96467 39.9065,8.89345 11.55349,5.92914 20.903,15.77274 28.04857,29.53081 7.14475,13.75839 10.71732,31.20321 10.71774,52.33452 -4.2e-4,14.29042 -1.7487,28.46671 -5.24486,42.52893 -3.49697,14.06234 -9.15989,26.37633 -16.98876,36.94201 -7.82966,10.565736 -17.40721,18.090954 -28.73268,22.575677 -11.3262,4.484729 -23.60218,6.727091 -36.82799,6.727095 -15.50684,-4e-6 -29.03703,-3.078502 -40.59061,-9.235504 -11.55416,-6.15699 -20.78966,-16.000588 -27.70652,-29.530808 -6.91738,-13.53015 -10.37593,-31.39304 -10.37569,-53.58873 -2.4e-4,-19.45905 3.68635,-38.2721 11.0598,-56.43919 7.37294,-18.16679 17.82463,-31.1649 31.35511,-38.99435 13.5299,-7.82907 28.65634,-11.74371 45.37939,-11.74391 z m -1.8243,43.55509 c -6.08132,1.5e-4 -11.28816,2.88863 -15.62055,8.66541 -4.33301,5.77709 -7.63955,13.83439 -9.9196,24.17194 -2.28069,10.33779 -3.42087,21.28356 -3.42056,32.83735 -3.1e-4,8.81751 0.45576,15.81064 1.36822,20.97942 0.91184,5.1689 2.31807,9.72963 4.21868,13.68222 1.9,3.9527 4.3704,7.1072 7.41121,9.46354 3.04018,2.35643 6.61275,3.53462 10.71775,3.53458 2.73612,4e-5 5.32053,-0.60806 7.75326,-1.82429 2.43206,-1.21616 4.97847,-3.61055 7.63925,-7.18317 2.66008,-3.57254 5.05447,-8.58935 7.18317,-15.05046 2.12798,-6.46098 3.72424,-13.15006 4.78878,-20.06727 1.06381,-6.91703 1.5959,-14.32824 1.59625,-22.23361 -3.5e-4,-14.89831 -2.05268,-26.45218 -6.15699,-34.66165 -4.10503,-8.20919 -9.95797,-12.31386 -17.55887,-12.31401 z"
         style="font-size:500px;font-style:normal;font-variant:normal;font-weight:normal;font-stretch:normal;text-align:start;line-height:125%;writing-mode:lr-tb;text-anchor:start;fill:#000000;fill-opacity:1;stroke:none;font-family:Eras Bold ITC;-inkscape-font-specification:Eras Bold ITC"
         id="path3637" />
    </g>
  </g>
</svg>
