<?xml version="1.0" encoding="UTF-8" standalone="no"?>
<!-- Created with Inkscape (http://www.inkscape.org/) -->

<svg
   xmlns:dc="http://purl.org/dc/elements/1.1/"
   xmlns:cc="http://creativecommons.org/ns#"
   xmlns:rdf="http://www.w3.org/1999/02/22-rdf-syntax-ns#"
   xmlns:svg="http://www.w3.org/2000/svg"
   xmlns="http://www.w3.org/2000/svg"
   xmlns:sodipodi="http://sodipodi.sourceforge.net/DTD/sodipodi-0.dtd"
   xmlns:inkscape="http://www.inkscape.org/namespaces/inkscape"
   width="16"
   height="16"
   id="svg3590"
   version="1.1"
   inkscape:version="0.48.1 "
   sodipodi:docname="dock-settings.svg">
  <defs
     id="defs3592">
    <inkscape:perspective
       sodipodi:type="inkscape:persp3d"
       inkscape:vp_x="0 : 526.18109 : 1"
       inkscape:vp_y="0 : 1000 : 0"
       inkscape:vp_z="744.09448 : 526.18109 : 1"
       inkscape:persp3d-origin="372.04724 : 350.78739 : 1"
       id="perspective3598" />
    <inkscape:perspective
       sodipodi:type="inkscape:persp3d"
       inkscape:vp_x="0 : 64 : 1"
       inkscape:vp_y="0 : 1000 : 0"
       inkscape:vp_z="128 : 64 : 1"
       inkscape:persp3d-origin="64 : 42.666667 : 1"
       id="perspective4699" />
    <clipPath
       clipPathUnits="userSpaceOnUse"
       id="clipoutline2-1">
      <path
         id="outline2-1"
         d="m 55.8,12 0.76,0.16 c 8.84,-2.94 28.68,8.64 24.26,18.96 -1.12,1.62 -0.93,4.5 0.42,6.31 L 56.43,62.25 c -1.39,-1.39 -4.48,-1.36 -5.9,0 L 9.5,101.63 c -3.74,3.59 -0.8,6.64 0.78,8.25 l 7.36,7.36 c 1.61,1.6 5.86,3.76 8.88,0.56 L 65.24,76.99 c 1.35,-1.42 1.36,-4.47 0,-5.87 0,0 0.01,-0.02 0,-0.02 L 90.15,46.2 c 2.63,2.37 5.113827,2.574854 7.47,1.93 4.55057,-1.245432 7.08725,3.206643 9.81,6.46 l -1.23,1.21 c -1.82,1.84 -1.65,4.94 0.39,6.98 2.04,2.04 5.15,2.21 6.97,0.39 l 8.14,-8.13 c 1.82,-1.84 1.65,-4.94 -0.4,-6.97 -1.84,-1.85 -4.51,-2.09 -6.37,-0.77 -5.58,-6.26 -2.65,-7.2 -10.01,-15.35 L 91.13,17.86 C 81.2,8.12 68.3,8.13 55.8,12 z" />
    </clipPath>
    <inkscape:perspective
       sodipodi:type="inkscape:persp3d"
       inkscape:vp_x="0 : 64 : 1"
       inkscape:vp_y="0 : 1000 : 0"
       inkscape:vp_z="128 : 64 : 1"
       inkscape:persp3d-origin="64 : 42.666667 : 1"
       id="perspective4452" />
    <clipPath
       clipPathUnits="userSpaceOnUse"
       id="clipoutline1">
      <path
         id="outline1"
         d="m 22.42,17.2 12.96,12.95 -2.5,8.78 -8.78,2.5 -12.96,-12.96 -5.86,5.86 14.89,21.46 17.56,-3.34 61.63,65.62 c 9.44,9.51 22.17,-4.75 13.34,-12.87 L 46.85,42.92 50.86,25.16 28.72,10.89 22.42,17.2 z m 81.06,91.97 c 1.68,-1.68 4.4,-1.68 6.08,0 1.68,1.68 1.68,4.4 0,6.08 -1.68,1.67 -4.4,1.67 -6.08,0 -1.68,-1.68 -1.68,-4.4 0,-6.08 z" />
    </clipPath>
    <clipPath
       clipPathUnits="userSpaceOnUse"
       id="clipoutline2">
      <path
         id="outline2"
         d="m 55.8,12 0.76,0.16 c 8.84,-2.94 28.68,8.64 24.26,18.96 -1.12,1.62 -0.93,4.5 0.42,6.31 L 56.43,62.25 c -1.39,-1.39 -4.48,-1.36 -5.9,0 L 9.5,101.63 c -3.74,3.59 -0.8,6.64 0.78,8.25 l 7.36,7.36 c 1.61,1.6 5.86,3.76 8.88,0.56 L 65.24,76.99 c 1.35,-1.42 1.36,-4.47 0,-5.87 0,0 0.01,-0.02 0,-0.02 L 90.15,46.2 c 2.63,2.37 5.113827,2.574854 7.47,1.93 4.55057,-1.245432 7.08725,3.206643 9.81,6.46 l -1.23,1.21 c -1.82,1.84 -1.65,4.94 0.39,6.98 2.04,2.04 5.15,2.21 6.97,0.39 l 8.14,-8.13 c 1.82,-1.84 1.65,-4.94 -0.4,-6.97 -1.84,-1.85 -4.51,-2.09 -6.37,-0.77 -5.58,-6.26 -2.65,-7.2 -10.01,-15.35 L 91.13,17.86 C 81.2,8.12 68.3,8.13 55.8,12 z" />
    </clipPath>
    <filter
       color-interpolation-filters="sRGB"
       id="ShadowBlur"
       filterUnits="userSpaceOnUse"
       x="0"
       y="0">
      <feGaussianBlur
         in="SourceGraphic"
         stdDeviation="2"
         id="feGaussianBlur6" />
    </filter>
    <inkscape:perspective
       id="perspective10"
       inkscape:persp3d-origin="372.04724 : 350.78739 : 1"
       inkscape:vp_z="744.09448 : 526.18109 : 1"
       inkscape:vp_y="0 : 1000 : 0"
       inkscape:vp_x="0 : 526.18109 : 1"
       sodipodi:type="inkscape:persp3d" />
  </defs>
  <sodipodi:namedview
     id="base"
     pagecolor="#ffffff"
     bordercolor="#666666"
     borderopacity="1.0"
     inkscape:pageopacity="0.0"
     inkscape:pageshadow="2"
     inkscape:zoom="16.59375"
     inkscape:cx="-4.2658016"
     inkscape:cy="6.5050238"
     inkscape:document-units="px"
     inkscape:current-layer="layer1"
     showgrid="false"
     inkscape:window-width="1024"
     inkscape:window-height="578"
     inkscape:window-x="-8"
     inkscape:window-y="-8"
     inkscape:window-maximized="1" />
  <metadata
     id="metadata3595">
    <rdf:RDF>
      <cc:Work
         rdf:about="">
        <dc:format>image/svg+xml</dc:format>
        <dc:type
           rdf:resource="http://purl.org/dc/dcmitype/StillImage" />
        <dc:title />
      </cc:Work>
    </rdf:RDF>
  </metadata>
  <g
     inkscape:label="Calque 1"
     inkscape:groupmode="layer"
     id="layer1"
     transform="translate(0,-1036.3622)">
    <path
       style="fill:#000000;stroke:#000080;stroke-width:0.22118035;stroke-miterlimit:4;stroke-dasharray:none"
       d="m 2.5353505,1037.4964 c 0.6077538,0.6072 1.2155077,1.2145 1.8232615,1.8217 -0.1172367,0.4118 -0.2344735,0.8236 -0.3517102,1.2353 -0.4117346,0.1173 -0.823469,0.2345 -1.2352035,0.3517 -0.6077533,-0.6078 -1.2155065,-1.2155 -1.82325978,-1.8233 -0.27480263,0.2748 -0.54960526,0.5497 -0.82440789,0.8245 0.69826004,1.0063 1.39652007,2.0127 2.09478017,3.0191 0.8234694,-0.1566 1.6469386,-0.3133 2.470408,-0.4699 2.8901128,3.0772 5.7802252,6.1544 8.6703392,9.2316 0.568843,0.6952 1.737662,0.5173 2.123335,-0.2727 0.377068,-0.5919 0.09219,-1.3385 -0.440774,-1.7216 -3.023288,-2.8593 -6.0465769,-5.7187 -9.0698647,-8.578 0.1880478,-0.8329 0.3760956,-1.6657 0.5641434,-2.4986 -1.0382467,-0.6691 -2.0764934,-1.3383 -3.11474,-2.0075 -0.2954357,0.2959 -0.5908715,0.5918 -0.8863072,0.8877 z"
       id="use4411"
       inkscape:connector-curvature="0" />
    <path
       inkscape:connector-curvature="0"
       id="use4691"
       d="m 6.9035573,1037.2739 0.1035466,0.021 c 1.2043718,-0.3999 3.9074021,1.1753 3.3052151,2.5793 -0.15259,0.2203 -0.126705,0.612 0.05722,0.8582 l -3.3801485,3.3763 c -0.1893758,-0.1891 -0.6103615,-0.185 -0.8038242,0 l -5.58998664,5.3569 c -0.50954001,0.4882 -0.10899079,0.9032 0.10626984,1.1222 l 1.002737,1.0013 c 0.2193512,0.2175 0.7983752,0.5113 1.209823,0.077 l 5.2752687,-5.5514 c 0.1839241,-0.1932 0.185287,-0.608 0,-0.7985 0,0 0.00131,0 0,0 l 3.3937718,-3.3871 c 0.358316,0.3224 0.696715,0.3502 1.017724,0.2625 0.619975,-0.1694 0.965576,0.4362 1.33653,0.8787 l -0.167579,0.1647 c -0.24796,0.2502 -0.224796,0.6719 0.05313,0.9496 0.277937,0.2774 0.701644,0.3005 0.949604,0.052 l 1.109005,-1.1059 c 0.247961,-0.2502 0.224797,-0.6719 -0.0545,-0.9481 -0.250685,-0.2517 -0.614448,-0.2844 -0.867857,-0.1047 -0.760227,-0.8515 -0.361041,-0.9794 -1.363778,-2.088 l -1.878769,-1.9167 c -1.352875,-1.3248 -3.1103909,-1.3236 -4.8134084,-0.7971 z"
       style="color:#000000;fill:#000000;fill-opacity:1;fill-rule:nonzero;stroke:#000080;stroke-width:0.22275524;stroke-linecap:butt;stroke-linejoin:miter;stroke-miterlimit:4;stroke-opacity:1;stroke-dasharray:none;stroke-dashoffset:0;marker:none;visibility:visible;display:inline;overflow:visible;enable-background:accumulate" />
  </g>
</svg>
