<?xml version="1.0" encoding="UTF-8" standalone="no"?>
<!-- made by Andy, It's public domain,  yeah why not-->

<svg
   xmlns:dc="http://purl.org/dc/elements/1.1/"
   xmlns:cc="http://creativecommons.org/ns#"
   xmlns:rdf="http://www.w3.org/1999/02/22-rdf-syntax-ns#"
   xmlns:svg="http://www.w3.org/2000/svg"
   xmlns="http://www.w3.org/2000/svg"
   xmlns:xlink="http://www.w3.org/1999/xlink"
   xmlns:sodipodi="http://sodipodi.sourceforge.net/DTD/sodipodi-0.dtd"
   xmlns:inkscape="http://www.inkscape.org/namespaces/inkscape"
   version="1.0"
   width="128"
   height="128"
   id="svg4895"
   inkscape:version="0.48.1 "
   sodipodi:docname="new-dock.svg">
  <metadata
     id="metadata78">
    <rdf:RDF>
      <cc:Work
         rdf:about="">
        <dc:format>image/svg+xml</dc:format>
        <dc:type
           rdf:resource="http://purl.org/dc/dcmitype/StillImage" />
        <dc:title />
      </cc:Work>
    </rdf:RDF>
  </metadata>
  <sodipodi:namedview
     pagecolor="#ffffff"
     bordercolor="#666666"
     borderopacity="1"
     objecttolerance="10"
     gridtolerance="10"
     guidetolerance="10"
     inkscape:pageopacity="0"
     inkscape:pageshadow="2"
     inkscape:window-width="1024"
     inkscape:window-height="578"
     id="namedview76"
     showgrid="false"
     inkscape:zoom="1.859375"
     inkscape:cx="-129.88235"
     inkscape:cy="58.890756"
     inkscape:window-x="-8"
     inkscape:window-y="-8"
     inkscape:window-maximized="1"
     inkscape:current-layer="svg4895" />
  <defs
     id="defs3">
    <linearGradient
       id="linearGradient3696">
      <stop
         id="stop3698"
         offset="0"
         style="stop-color:#73d216;stop-opacity:1;" />
      <stop
         style="stop-color:#7ed61c;stop-opacity:1;"
         offset="0.5"
         id="stop3704" />
      <stop
         id="stop3700"
         offset="1"
         style="stop-color:#fffff3;stop-opacity:1;" />
    </linearGradient>
    <inkscape:perspective
       sodipodi:type="inkscape:persp3d"
       inkscape:vp_x="0 : 64 : 1"
       inkscape:vp_y="0 : 1000 : 0"
       inkscape:vp_z="128 : 64 : 1"
       inkscape:persp3d-origin="64 : 42.666667 : 1"
       id="perspective80" />
    <linearGradient
       id="WhiteTransparent">
      <stop
         style="stop-color:white;stop-opacity:1"
         offset="0"
         id="stop6" />
      <stop
         style="stop-color:white;stop-opacity:0"
         offset="1"
         id="stop8" />
    </linearGradient>
    <linearGradient
       id="BlackTransparent">
      <stop
         style="stop-color:black;stop-opacity:1"
         offset="0"
         id="stop11" />
      <stop
         style="stop-color:black;stop-opacity:0"
         offset="1"
         id="stop13" />
    </linearGradient>
    <linearGradient
       xlink:href="#WhiteTransparent"
       id="lg1999"
       x1="637.03"
       y1="69.99"
       x2="638.3"
       y2="118.3"
       gradientUnits="userSpaceOnUse"
       gradientTransform="matrix(0.1,0.1,-0.22,0.2,75.6,-33.53)" />
    <linearGradient
       xlink:href="#WhiteTransparent"
       id="lg02"
       x1="512.7"
       y1="254.36"
       x2="615.59"
       y2="254.83"
       gradientUnits="userSpaceOnUse"
       gradientTransform="matrix(8.07e-2,7.75e-2,-0.35,0.36,77.14,-45.89)" />
    <linearGradient
       xlink:href="#BlackTransparent"
       id="lg05"
       x1="543.1"
       y1="286.56"
       x2="419.88"
       y2="286.56"
       gradientUnits="userSpaceOnUse"
       gradientTransform="matrix(9.98e-2,9.98e-2,-0.28,0.28,78.84,-44.8)"
       spreadMethod="pad" />
    <linearGradient
       xlink:href="#WhiteTransparent"
       id="lg09"
       x1="258.96"
       y1="62.74"
       x2="258.96"
       y2="-1.72"
       gradientUnits="userSpaceOnUse"
       gradientTransform="matrix(0.33,0.33,-9.44e-2,9.44e-2,9.03,-48.1)" />
    <linearGradient
       xlink:href="#WhiteTransparent"
       id="lg12"
       x1="146.15"
       y1="288.57"
       x2="146.15"
       y2="368.27"
       gradientUnits="userSpaceOnUse"
       gradientTransform="matrix(0.3,0.3,-9e-2,9e-2,78.84,-44.8)" />
    <linearGradient
       xlink:href="#WhiteTransparent"
       id="lg16"
       x1="577.03"
       y1="124"
       x2="626.1"
       y2="124"
       gradientUnits="userSpaceOnUse"
       gradientTransform="matrix(7.75e-2,7.75e-2,-0.36,0.36,78.84,-44.8)"
       spreadMethod="pad" />
    <linearGradient
       xlink:href="#BlackTransparent"
       id="lg19"
       x1="75.1"
       y1="189.14"
       x2="71.77"
       y2="185.8"
       gradientTransform="matrix(1.05,0,0,1.05,0.13,-140.54)" />
    <linearGradient
       xlink:href="#WhiteTransparent"
       id="lg51"
       x1="646.24"
       y1="-252.6"
       x2="607.66"
       y2="-186.26"
       gradientUnits="userSpaceOnUse"
       gradientTransform="matrix(0.2,0,0,0.2,-80.94,88.3)" />
    <linearGradient
       xlink:href="#WhiteTransparent"
       id="lg55"
       x1="550.96"
       y1="-137.5"
       x2="655.42"
       y2="-241.2"
       gradientUnits="userSpaceOnUse"
       gradientTransform="matrix(0.26,0,0,0.26,-106.57,101.57)" />
    <linearGradient
       xlink:href="#BlackTransparent"
       id="lgdg"
       x1="73.88"
       y1="66.2"
       x2="84.3"
       y2="86.68"
       gradientTransform="translate(-0.30267,-3.20138)"
       gradientUnits="userSpaceOnUse" />
    <clipPath
       clipPathUnits="userSpaceOnUse"
       id="clipoutline1">
      <path
         id="outline1"
         d="M 22.42,17.2 L 35.38,30.15 L 32.88,38.93 L 24.1,41.43 L 11.14,28.47 L 5.28,34.33 L 20.17,55.79 L 37.73,52.45 L 99.36,118.07 C 108.8,127.58 121.53,113.32 112.7,105.2 L 46.85,42.92 L 50.86,25.16 L 28.72,10.89 L 22.42,17.2 z M 103.48,109.17 C 105.16,107.49 107.88,107.49 109.56,109.17 C 111.24,110.85 111.24,113.57 109.56,115.25 C 107.88,116.92 105.16,116.92 103.48,115.25 C 101.8,113.57 101.8,110.85 103.48,109.17 z" />
    </clipPath>
    <clipPath
       clipPathUnits="userSpaceOnUse"
       id="clipoutline2">
      <path
         id="outline2"
         d="M 55.8,12 L 56.56,12.16 C 65.4,9.22 85.24,20.8 80.82,31.12 C 79.7,32.74 79.89,35.62 81.24,37.43 L 56.43,62.25 C 55.04,60.86 51.95,60.89 50.53,62.25 L 9.5,101.63 C 5.76,105.22 8.7,108.27 10.28,109.88 L 17.64,117.24 C 19.25,118.84 23.5,121 26.52,117.8 L 65.24,76.99 C 66.59,75.57 66.6,72.52 65.24,71.12 C 65.24,71.12 65.25,71.1 65.24,71.1 L 90.15,46.2 C 92.78,48.57 95.263827,48.774854 97.62,48.13 C 102.17057,46.884568 104.70725,51.336643 107.43,54.59 L 106.2,55.8 C 104.38,57.64 104.55,60.74 106.59,62.78 C 108.63,64.82 111.74,64.99 113.56,63.17 L 121.7,55.04 C 123.52,53.2 123.35,50.1 121.3,48.07 C 119.46,46.22 116.79,45.98 114.93,47.3 C 109.35,41.04 112.28,40.1 104.92,31.95 L 91.13,17.86 C 81.2,8.12 68.3,8.13 55.8,12 z" />
    </clipPath>
    <!-- -->
    <filter
       id="ShadowBlur"
       filterUnits="userSpaceOnUse"
       x="0"
       y="0">
      <feGaussianBlur
         in="SourceGraphic"
         stdDeviation="2"
         id="feGaussianBlur6" />
    </filter>
    <radialGradient
       inkscape:collect="always"
       xlink:href="#linearGradient3696"
       id="radialGradient3702"
       cx="12.369748"
       cy="17.210085"
       fx="12.369748"
       fy="17.210085"
       r="66.65126"
       gradientUnits="userSpaceOnUse" />
  </defs>
  <style
     type="text/css"
     id="style31">
	/* Specular Highlighting */
		.low-specularity	{opacity:0.25;}
		.specularity		{opacity:0.5;}
		.high-specularity	{opacity:0.75;}
		.full-specularity	{opacity:1;}

	/* Shading */
		.low-shade	{opacity:0.25;}
		.shade		{opacity:0.5;}
		.high-shade	{opacity:0.75;}
		.full-shade	{opacity:1;}

	/* Tango palette fill/stroke */
		.black		{fill:#000;}
		.aluminium1	{fill:#eeeeec;}
		.aluminium2	{fill:#d3d7cf;}
		.aluminium6	{fill:#2e3436;}
		.chocolate3	{fill:#8f5902;}
		.chocolate2	{fill:#c17d11;}
		.aluminium4	{fill:#888a85;}

	/* Shadows: Back-Shadows &amp; Base Shadows */
		.base-shadow	{opacity:0.4;}
		.outline-big	{stroke:black;stroke-width:8;opacity:0.25;stroke-linejoin:round;}
		.outline-small	{stroke:black;stroke-width:4;opacity:0.5;stroke-linejoin:round;}
		.stroke-highlight	{fill:none;stroke:white;stroke-opacity:0.2;stroke-width:4;stroke-linejoin:round;}
	</style>
  <path
     sodipodi:type="arc"
     style="fill:url(#radialGradient3702);fill-rule:evenodd;stroke:#000000;stroke-width:1px;stroke-linecap:butt;stroke-linejoin:miter;stroke-opacity:1;fill-opacity:1"
     id="path2907"
     sodipodi:cx="12.369748"
     sodipodi:cy="17.210085"
     sodipodi:rx="66.15126"
     sodipodi:ry="66.15126"
     d="m 78.521008,17.210085 a 66.15126,66.15126 0 1 1 -132.30252,0 66.15126,66.15126 0 1 1 132.30252,0 z"
     transform="matrix(0.94351636,0,0,0.94351636,52.32894,47.762003)" />
  <path
     style="fill:#ffffff;fill-rule:nonzero;stroke:#000000;stroke-width:1px;stroke-linecap:butt;stroke-linejoin:miter;stroke-opacity:1"
     d="m 51.078125,14.515625 c 0,12.197917 0,24.395833 0,36.59375 -12.1875,0 -24.375,0 -36.5625,0 0,8.604167 0,17.208333 0,25.8125 12.1875,0 24.375,0 36.5625,0 0,12.187502 0,24.375005 0,36.562505 8.604167,0 17.208333,0 25.8125,0 0,-12.1875 0,-24.375003 0,-36.562505 12.197918,0 24.395835,0 36.593755,0 0,-8.604167 0,-17.208333 0,-25.8125 -12.19792,0 -24.395837,0 -36.593755,0 0,-12.197917 0,-24.395833 0,-36.59375 -8.604167,0 -17.208333,0 -25.8125,0 z"
     id="rect2909"
     inkscape:connector-curvature="0" />
</svg>
