<?xml version="1.0" encoding="UTF-8" standalone="no"?>
<!-- Created with Inkscape (http://www.inkscape.org/) -->
<svg
   xmlns:dc="http://purl.org/dc/elements/1.1/"
   xmlns:cc="http://creativecommons.org/ns#"
   xmlns:rdf="http://www.w3.org/1999/02/22-rdf-syntax-ns#"
   xmlns:svg="http://www.w3.org/2000/svg"
   xmlns="http://www.w3.org/2000/svg"
   xmlns:sodipodi="http://sodipodi.sourceforge.net/DTD/sodipodi-0.dtd"
   xmlns:inkscape="http://www.inkscape.org/namespaces/inkscape"
   width="16px"
   height="16px"
   id="svg2383"
   sodipodi:version="0.32"
   inkscape:version="0.46"
   sodipodi:docname="spectrum.svg"
   inkscape:output_extension="org.inkscape.output.svg.inkscape">
  <defs
     id="defs2385">
    <inkscape:perspective
       sodipodi:type="inkscape:persp3d"
       inkscape:vp_x="0 : 8 : 1"
       inkscape:vp_y="0 : 1000 : 0"
       inkscape:vp_z="16 : 8 : 1"
       inkscape:persp3d-origin="8 : 5.3333333 : 1"
       id="perspective2391" />
    <inkscape:perspective
       id="perspective2497"
       inkscape:persp3d-origin="372.04724 : 350.78739 : 1"
       inkscape:vp_z="744.09448 : 526.18109 : 1"
       inkscape:vp_y="0 : 1000 : 0"
       inkscape:vp_x="0 : 526.18109 : 1"
       sodipodi:type="inkscape:persp3d" />
    <inkscape:perspective
       id="perspective2584"
       inkscape:persp3d-origin="372.04724 : 350.78739 : 1"
       inkscape:vp_z="744.09448 : 526.18109 : 1"
       inkscape:vp_y="0 : 1000 : 0"
       inkscape:vp_x="0 : 526.18109 : 1"
       sodipodi:type="inkscape:persp3d" />
  </defs>
  <sodipodi:namedview
     id="base"
     pagecolor="#ffffff"
     bordercolor="#666666"
     borderopacity="1.0"
     inkscape:pageopacity="0.0"
     inkscape:pageshadow="2"
     inkscape:zoom="39.625"
     inkscape:cx="8"
     inkscape:cy="8"
     inkscape:current-layer="layer1"
     showgrid="true"
     inkscape:grid-bbox="true"
     inkscape:document-units="px"
     inkscape:window-width="1440"
     inkscape:window-height="831"
     inkscape:window-x="-4"
     inkscape:window-y="-3" />
  <metadata
     id="metadata2388">
    <rdf:RDF>
      <cc:Work
         rdf:about="">
        <dc:format>image/svg+xml</dc:format>
        <dc:type
           rdf:resource="http://purl.org/dc/dcmitype/StillImage" />
      </cc:Work>
    </rdf:RDF>
  </metadata>
  <g
     id="layer1"
     inkscape:label="Layer 1"
     inkscape:groupmode="layer">
    <path
       style="opacity:1;fill:#0000ff;fill-opacity:1;fill-rule:nonzero;stroke:none;stroke-width:2.70000005;stroke-linecap:square;stroke-linejoin:miter;marker:none;marker-start:none;marker-mid:none;marker-end:none;stroke-miterlimit:4;stroke-dasharray:none;stroke-dashoffset:0;stroke-opacity:1;visibility:visible;display:inline;overflow:visible;enable-background:accumulate"
       d="M 7.9986494,1.1367482 L 7.9013526,2.1026389 L 7.8040556,3.06853 L 7.5365041,2.5952333 C 7.3912411,2.3342097 7.1980712,2.1219601 7.1035632,2.1219601 L 6.928431,2.1219601 L 6.831146,2.740118 L 6.7338492,3.3582759 L 6.3933278,3.4065788 C 6.2064594,3.4312956 5.8383712,3.4216589 5.5760766,3.3872577 L 5.0993468,3.3196573 L 4.9193611,4.1116816 L 4.7393636,4.9037062 L 4.5885707,4.9037062 L 4.4377658,4.9037062 L 4.3064227,3.5901058 L 4.1750796,2.2764818 L 3.9561705,2.2764818 L 3.7372614,2.2764818 L 3.6059183,3.2810151 C 3.5338149,3.8335049 3.4431279,4.2855483 3.4016055,4.2855483 C 3.3600831,4.2855483 3.1828507,4.1116816 3.0075762,3.8991728 L 2.6865048,3.5128215 L 2.5016538,4.0054392 L 2.3168027,4.4980334 L 1.6600753,4.7008815 L 1.6600753,5.6281301 L 2.3168027,5.8116337 L 2.4967883,5.3383605 L 2.6767739,4.8650639 L 3.0027108,5.2610759 L 3.3286358,5.6667486 L 3.5718602,4.980967 C 3.7058971,4.6010244 3.8755822,4.2855483 3.951305,4.2855483 L 4.0875136,4.2855483 L 4.2188567,5.5991485 L 4.3501998,6.9127487 L 4.5691089,6.9127487 L 4.7831526,6.9127487 L 5.0020498,5.5991485 L 5.2209589,4.2855483 L 5.819313,4.2855483 L 6.4176549,4.2855483 L 6.4760283,4.6525787 L 6.5392672,5.0099486 L 6.8019534,4.8167847 L 7.0646396,4.6139366 L 7.0646396,3.986118 L 7.0646396,3.3582759 L 7.210579,3.3582759 L 7.3565184,3.3582759 L 7.4440844,4.6718999 C 7.4921099,5.3943681 7.5491305,6.5418539 7.570562,7.2218396 L 7.6094738,8.4581788 L 7.8429792,8.4581788 L 8.0764728,8.4581788 L 8.1543078,6.603658 L 8.232143,4.7588214 L 8.5240218,4.6429182 L 8.8207661,4.5366756 L 9.1661528,4.9037062 L 9.5163932,5.2803973 L 9.8374646,4.9326878 C 10.013771,4.7453437 10.268851,4.5946155 10.401749,4.5946155 L 10.640119,4.5946155 L 10.873625,5.7053911 L 11.107119,6.8161668 L 11.296835,6.690603 L 11.486564,6.5650394 L 11.60331,5.6957305 L 11.720056,4.8264452 L 12.036262,4.3821303 L 12.357322,3.9378152 L 12.357322,3.4645421 L 12.357322,3.000906 L 12.551904,3.1264697 L 12.746486,3.2520335 L 12.848648,4.6815603 C 12.905182,5.4663512 12.999371,6.2613443 13.057826,6.4491362 L 13.164843,6.7871852 L 13.544276,6.2945908 L 13.923721,5.8019731 L 14.541524,5.8792574 L 14.604763,5.8889181 L 14.604763,3.9378152 L 14.565852,3.8315727 L 14.278838,4.3434879 C 14.121269,4.625482 13.8114,4.9476027 13.588065,5.0582514 L 13.179438,5.2610759 L 13.091873,3.9571364 L 13.004307,2.6531965 L 12.765948,2.1799 L 12.527577,1.7066267 L 11.977877,2.7594392 L 11.428177,3.821912 L 11.428177,4.3628091 L 11.423313,4.9037062 L 11.189819,4.9037062 L 10.956313,4.9037062 L 10.956313,4.1213423 L 10.956313,3.3389785 L 10.717954,3.1554513 L 10.474718,2.9719244 L 10.289867,3.4548816 L 10.100151,3.9378152 L 9.6720634,4.1503239 L 9.2439762,4.3531486 L 9.2439762,4.0054392 L 9.2439762,3.6480455 L 8.8645432,3.3679366 L 8.4899637,3.078167 L 8.4364558,2.2378633 L 8.3878132,1.3975362 L 8.1932314,1.2719724 L 7.9986494,1.1367482 z"
       id="path3412" />
    <path
       style="opacity:1;fill:#ff0000;fill-opacity:1;fill-rule:nonzero;stroke:none;stroke-width:2.70000004999999987;stroke-linecap:square;stroke-linejoin:miter;marker:none;marker-start:none;marker-mid:none;marker-end:none;stroke-miterlimit:4;stroke-dasharray:none;stroke-dashoffset:0;stroke-opacity:1;visibility:visible;display:inline;overflow:visible;enable-background:accumulate"
       d="M 3.9464397,6.7861876 C 3.8757484,6.7861876 3.773586,7.0897525 3.7177996,7.4568758 L 3.6156492,8.1173756 L 3.3918747,7.7414027 L 3.1729655,7.3552414 L 2.9248757,7.7921949 L 2.6767739,8.2189853 L 2.5259809,7.6600951 L 2.3800415,7.1113683 L 2.1854596,7.1113683 L 1.9957312,7.1113683 L 1.7184606,8.0868853 L 1.6600753,8.3002928 L 1.6600753,10.52569 L 1.6746716,10.52569 L 1.8060147,9.4688658 L 1.9373578,8.412066 L 2.1514015,8.412066 L 2.3605797,8.412066 L 2.4530112,8.899812 L 2.5405654,9.3875831 L 2.8616368,9.3875831 L 3.1826964,9.3875831 L 3.3286358,10.20051 L 3.4794407,11.01346 L 3.7032033,11.01346 L 3.9318434,11.01346 L 4.0291402,11.663798 L 4.1264252,12.314158 L 4.3161417,12.314158 L 4.5010047,12.314158 L 4.700452,11.64347 L 4.8998993,10.982971 L 5.1917782,11.176027 L 5.4836451,11.369108 L 5.6928234,10.474873 L 5.8971362,9.5908272 L 6.3203581,9.3570927 L 6.74358,9.1233831 L 6.8895194,9.4993561 C 6.9718047,9.7064671 7.0881598,10.277058 7.1473401,10.769564 C 7.2065205,11.262095 7.3281565,11.769101 7.4197573,11.887344 L 7.5900238,12.10075 L 7.8137866,11.389434 L 8.037561,10.68828 L 8.2370085,10.68828 L 8.4364558,10.68828 L 8.5969915,11.663798 C 8.6865274,12.200327 8.8015298,12.639314 8.8499469,12.639314 C 8.8983758,12.639314 9.0962804,12.456422 9.2877651,12.23285 C 9.4792379,12.009305 9.7591192,11.623168 9.9104343,11.369108 L 10.182851,10.901664 L 10.644984,11.816224 L 11.102253,12.740948 L 11.330893,12.33446 L 11.564387,11.93816 L 11.875727,12.141405 L 12.187056,12.344624 L 12.517846,11.653635 L 12.853514,10.952481 L 13.267005,11.176027 C 13.495028,11.297121 13.925666,11.441269 14.225318,11.501207 L 14.604763,11.582514 L 14.604763,10.68828 L 13.782646,10.52569 L 12.838918,10.342773 L 12.522712,10.749237 L 12.211383,11.155725 L 11.973012,10.515528 L 11.734653,9.8753541 L 11.506013,10.495201 C 11.380674,10.833543 11.253639,11.272531 11.218999,11.470718 L 11.15576,11.826387 L 10.693627,10.921991 L 10.231494,10.017617 L 9.9688077,10.231 L 9.7061215,10.434244 L 9.4774816,10.03792 L 9.2439762,9.6314561 L 9.0396634,9.9871272 L 8.8304851,10.342773 L 8.6553649,9.9769636 L 8.4753794,9.6009906 L 8.0424265,10.007454 L 7.6143391,10.424081 L 7.4538154,9.8550271 C 7.3675547,9.5417948 7.1850414,9.0349363 7.0451898,8.7270832 L 6.7922226,8.1580295 L 6.3933278,8.3205949 L 5.994433,8.4831853 L 5.7268815,9.0928928 L 5.4593298,9.7127638 L 5.1139431,9.7127638 L 4.7636909,9.7127638 L 4.6712594,10.220837 L 4.5788398,10.728935 L 4.418304,10.52569 L 4.2626338,10.322446 L 4.2626338,9.0725658 C 4.2626338,8.3823689 4.2221794,7.5873398 4.1702142,7.304449 C 4.1182371,7.0215334 4.0171309,6.7861876 3.9464397,6.7861876 z"
       id="rect3387" />
    <path
       style="fill:none;fill-rule:evenodd;stroke:#000000;stroke-width:0.98597281999999997;stroke-linecap:square;stroke-linejoin:miter;stroke-miterlimit:4;stroke-dasharray:none;stroke-opacity:1"
       d="M 1.4929865,1.4929861 L 1.4929865,14.507013 L 14.507013,14.507013"
       id="path3385" />
  </g>
</svg>
